<svg width="107" height="80" viewBox="0 0 107 80" fill="none" xmlns="http://www.w3.org/2000/svg">
<path d="M53.121 42.3612C52.0871 42.7812 51.1298 42.5998 50.2587 42.0749C49.2536 41.464 48.2101 41.3686 47.0805 41.5499C45.0798 41.8649 43.2419 42.5998 41.4805 43.5447C41.4996 43.6402 41.4996 43.7261 41.5188 43.7452C44.2566 44.9573 44.7639 47.4675 44.9841 49.9968C45.434 55.1986 44.0938 60.0949 42.0548 64.8195C40.6381 68.0933 38.9724 71.243 36.5696 73.925C35.8613 74.7076 35.038 75.4521 34.1286 75.9866C31.0366 77.7905 27.9446 76.2252 27.4468 72.6842C27.0543 69.8972 27.667 67.2152 28.3562 64.5522C29.773 59.0451 31.8981 53.8051 34.4158 48.7083C33.1139 47.6012 32.9224 46.6085 34.0233 45.2436C34.7891 44.2892 35.8325 43.5543 36.7037 42.6857C37.1823 42.2085 37.6992 41.7122 37.9864 41.1204C40.7529 35.346 43.7684 29.7242 47.4443 24.4556C49.3014 21.7927 51.5032 19.4639 53.8198 17.24C54.9589 16.1519 55.9449 16.0278 56.8352 16.7246C57.4861 17.24 57.7159 17.8986 57.3617 18.643C57.1032 19.1871 56.7682 19.712 56.3757 20.1606C51.6276 25.6583 47.54 31.6141 43.9598 37.923C43.7779 38.238 43.6343 38.5625 43.3663 39.0779C44.5533 38.6293 45.5106 38.2475 46.487 37.9134C48.0857 37.3599 49.7226 36.854 51.4074 37.4171C52.0967 37.6462 52.7668 38.0757 53.3028 38.572C54.1452 39.3547 54.2792 40.3664 53.7145 41.6167C54.7387 40.7577 55.5811 40.0037 56.481 39.3165C57.7829 38.3334 59.1901 37.5317 60.8653 37.3312C63.5074 37.0163 65.2688 39.0397 64.3019 41.5117C63.7659 42.8862 62.8277 44.1174 61.9949 45.3582C59.9368 48.4315 57.2277 50.684 53.6857 51.9057C53.4369 51.9916 53.0348 52.3639 53.0635 52.4402C53.2741 52.9175 53.523 53.6524 53.8772 53.7287C54.8058 53.9292 55.8492 54.0246 56.7586 53.8051C58.9699 53.2801 60.6643 51.8198 62.2534 50.2927C63.1341 49.4528 63.9286 48.527 64.7806 47.668C65.0582 47.3816 65.3837 47.1144 65.7283 46.9235C66.3218 46.599 66.9057 46.6562 67.4131 47.1335C67.9109 47.5916 68.1119 48.1738 67.8247 48.7847C67.5088 49.4623 67.1642 50.1495 66.6856 50.7127C64.3211 53.5474 61.5737 55.9526 58.1562 57.4225C56.7969 58.0047 55.2748 58.3865 53.8006 58.4533C50.3736 58.606 48.2005 56.3153 48.2771 52.8793C48.3537 49.2333 49.8758 46.179 52.1637 43.4397C52.5083 43.0961 52.8146 42.7334 53.121 42.3612ZM39.4032 47.563C39.2596 47.8398 39.1543 48.0116 39.0681 48.2025C37.8237 51.1613 36.5409 54.101 35.3443 57.0789C33.9946 60.429 32.7118 63.8173 32.1183 67.3965C31.946 68.4178 31.8311 69.4677 31.879 70.4985C31.9364 71.7011 32.7501 72.0161 33.6308 71.2048C34.3009 70.5844 34.904 69.859 35.4209 69.0954C37.3259 66.3084 38.7714 63.2828 39.7478 60.0568C40.6859 56.9739 41.3082 53.8337 41.021 50.579C40.9252 49.386 40.504 48.3456 39.4032 47.563ZM53.8868 48.2311C56.28 47.4771 59.9176 43.7738 60.0038 41.9603C57.266 43.4206 55.4663 45.6063 53.8868 48.2311Z" fill="#9D0101"/>
<path d="M7.51629 54.2823C9.12451 53.8337 10.5221 53.3851 11.9485 53.0702C13.9013 52.6407 15.8733 52.2875 17.8357 51.9344C18.2856 51.8485 18.7643 51.858 19.2238 51.8867C20.9086 51.963 21.55 52.4498 22.1243 54.206C22.2966 53.8147 22.4307 53.557 22.5168 53.2802C23.9527 48.861 26.1832 44.8523 28.9306 41.1204C29.6294 40.166 30.2229 39.1065 31.0653 38.3048C32.1853 37.2358 34.0041 37.9039 34.0999 39.3547C34.1381 39.9083 33.8797 40.5477 33.5925 41.0536C32.7692 42.5139 31.8503 43.9265 30.9696 45.3582C28.7774 48.9374 27.2266 52.7934 25.8768 56.7448C25.6567 57.3939 25.4078 58.062 25.044 58.6346C24.5079 59.4937 23.5698 59.7704 22.6987 59.465C21.8563 59.1691 21.3011 58.3197 21.3489 57.3557C21.3776 56.9262 21.4734 56.5062 21.5883 55.7331C20.4204 57.0598 19.1472 56.6494 17.9027 56.6303C15.4904 56.5826 13.2025 57.2411 11.0008 58.1861C9.67016 58.7492 8.32997 59.3028 6.98021 59.8277C6.52072 59.9995 6.03251 60.114 5.55387 60.1809C3.18939 60.534 1.38972 58.7492 1.81092 56.3917C1.98323 55.4372 2.35656 54.5019 2.73948 53.6047C8.27253 40.9295 16.1222 29.7052 24.5941 18.8626C25.1397 18.1658 25.829 17.555 26.5469 17.0395C27.3893 16.4382 28.4136 16.5719 29.1124 17.2018C29.8495 17.8699 30.041 18.748 29.5719 19.7216C29.2943 20.2656 28.9593 20.781 28.5955 21.2582C23.6081 27.7581 18.525 34.2006 14.3512 41.2636C12.0921 45.0909 10.1105 49.0901 8.01407 53.0225C7.82261 53.3661 7.71731 53.7478 7.51629 54.2823Z" fill="#9D0101"/>
<path d="M40.6668 27.9203C40.6476 29.9915 38.0726 32.9121 36.158 33.0362C34.8657 33.1221 33.918 32.2631 33.8988 30.9841C33.8797 29.1134 36.1006 26.2405 37.9194 25.7728C39.5276 25.3719 40.6859 26.2787 40.6668 27.9203Z" fill="#9D0101"/>
<path d="M64.8713 73.9452C64.8713 73.8265 64.9395 73.7672 65.0759 73.7672H66.0814C66.3425 73.7672 66.5515 73.9076 66.7082 74.1882L67.3828 75.3862C67.5569 75.6958 67.7397 75.92 67.9313 76.0589C68.1257 76.1978 68.3506 76.2673 68.6059 76.2673H68.8018V74.1882C68.8018 74.0754 68.841 73.977 68.9193 73.8931C69.0006 73.8092 69.0978 73.7672 69.2109 73.7672H70.0336C70.1468 73.7672 70.2425 73.8092 70.3209 73.8931C70.4021 73.977 70.4428 74.0754 70.4428 74.1882V76.2673H70.6386C70.894 76.2673 71.1174 76.1978 71.3089 76.0589C71.5034 75.92 71.6862 75.6958 71.8574 75.3862L72.5364 74.1882C72.6902 73.9076 72.8977 73.7672 73.1588 73.7672H74.1686C74.2818 73.7672 74.35 73.8063 74.3732 73.8844V73.9452C74.3732 74.0175 74.35 74.0985 74.3036 74.1882L73.359 75.894C73.2198 76.1428 73.066 76.3483 72.8977 76.5103C72.7294 76.6724 72.5074 76.7867 72.2317 76.8532C72.4232 76.8937 72.6191 77.0138 72.8193 77.2135C73.0224 77.4131 73.2023 77.6301 73.359 77.8645L74.4429 79.592C74.5212 79.7193 74.543 79.8191 74.5081 79.8915C74.4762 79.9638 74.4051 80 74.2949 80H73.2937C73.1806 80 73.0587 79.9609 72.9281 79.8828C72.7975 79.8018 72.6974 79.7048 72.6278 79.592L71.8574 78.381C71.6746 78.0859 71.4903 77.8645 71.3046 77.7169C71.1218 77.5665 70.8998 77.4912 70.6386 77.4912H70.4428V79.6007C70.4428 79.7135 70.4021 79.809 70.3209 79.8871C70.2425 79.9624 70.1468 80 70.0336 80H69.2109C69.0978 80 69.0006 79.9624 68.9193 79.8871C68.841 79.809 68.8018 79.7135 68.8018 79.6007V77.4912H68.6059C68.3448 77.4912 68.1213 77.5665 67.9356 77.7169C67.7528 77.8645 67.5685 78.0859 67.3828 78.381L66.6168 79.592C66.5471 79.7048 66.447 79.8018 66.3164 79.8828C66.1858 79.9609 66.064 80 65.9508 80H64.9497C64.8365 80 64.7654 79.9609 64.7364 79.8828C64.7248 79.8596 64.719 79.8264 64.719 79.783C64.719 79.7367 64.7451 79.673 64.7973 79.592L65.8855 77.8645C66.0422 77.6301 66.2207 77.4131 66.4209 77.2135C66.624 77.0138 66.8199 76.8937 67.0085 76.8532C66.7357 76.7867 66.5137 76.6724 66.3425 76.5103C66.1742 76.3483 66.0219 76.1428 65.8855 75.894L64.941 74.1882C64.8946 74.0985 64.8713 74.0175 64.8713 73.9452Z" fill="#960301"/>
<path d="M76.4895 79.592V74.1882C76.4895 74.0696 76.5286 73.9712 76.607 73.8931C76.6853 73.815 76.784 73.7759 76.903 73.7759H77.669C77.7822 73.7759 77.878 73.815 77.9563 73.8931C78.0376 73.9712 78.0782 74.0667 78.0782 74.1795V78.5243L80.5549 74.1882C80.6216 74.0754 80.713 73.9784 80.8291 73.8974C80.9452 73.8164 81.0525 73.7759 81.1512 73.7759H82.4352C82.5484 73.7759 82.6441 73.8164 82.7225 73.8974C82.8008 73.9784 82.84 74.0754 82.84 74.1882V79.592C82.84 79.7048 82.7994 79.8018 82.7181 79.8828C82.6369 79.9609 82.5397 80 82.4265 80H81.6604C81.5473 80 81.4501 79.9609 81.3688 79.8828C81.2905 79.8018 81.2513 79.7048 81.2513 79.592V75.5641L78.9792 79.592C78.9125 79.7048 78.8182 79.8018 78.6963 79.8828C78.5744 79.9609 78.4569 80 78.3437 80H76.903C76.7898 80 76.6926 79.9609 76.6114 79.8828C76.5301 79.8018 76.4895 79.7048 76.4895 79.592Z" fill="#960301"/>
<path d="M84.891 74.5962V74.1882C84.891 74.0696 84.9302 73.9712 85.0085 73.8931C85.0869 73.815 85.1855 73.7759 85.3045 73.7759H90.828C90.947 73.7759 91.0457 73.815 91.124 73.8931C91.2024 73.9712 91.2415 74.0696 91.2415 74.1882V74.5962C91.2415 74.7149 91.2024 74.8132 91.124 74.8914C91.0457 74.9666 90.947 75.0042 90.828 75.0042H88.8867V79.6007C88.8867 79.7135 88.8461 79.809 88.7649 79.8871C88.6865 79.9624 88.5908 80 88.4776 80H87.6549C87.5418 80 87.4446 79.9624 87.3633 79.8871C87.285 79.809 87.2458 79.7135 87.2458 79.6007V75.0042H85.3045C85.1855 75.0042 85.0869 74.9666 85.0085 74.8914C84.9302 74.8132 84.891 74.7149 84.891 74.5962Z" fill="#960301"/>
<path d="M92.7571 74.5962V74.1882C92.7571 74.0696 92.7963 73.9712 92.8747 73.8931C92.953 73.815 93.0517 73.7759 93.1706 73.7759H98.6942C98.8131 73.7759 98.9118 73.815 98.9902 73.8931C99.0685 73.9712 99.1077 74.0696 99.1077 74.1882V74.5962C99.1077 74.7149 99.0685 74.8132 98.9902 74.8914C98.9118 74.9666 98.8131 75.0042 98.6942 75.0042H96.7529V79.6007C96.7529 79.7135 96.7123 79.809 96.631 79.8871C96.5527 79.9624 96.4569 80 96.3437 80H95.5211C95.4079 80 95.3107 79.9624 95.2294 79.8871C95.1511 79.809 95.1119 79.7135 95.1119 79.6007V75.0042H93.1706C93.0517 75.0042 92.953 74.9666 92.8747 74.8914C92.7963 74.8132 92.7571 74.7149 92.7571 74.5962Z" fill="#960301"/>
<path d="M100.81 79.7526C100.81 79.7063 100.829 79.6527 100.867 79.592L102.068 77.6171C101.247 77.2612 100.838 76.6564 100.841 75.8028C100.841 75.1576 101.064 74.6584 101.511 74.3054C101.961 73.9524 102.524 73.7759 103.2 73.7759H106.608C106.716 73.7759 106.807 73.815 106.882 73.8931C106.961 73.9712 107 74.0667 107 74.1795V79.6007C107 79.7135 106.959 79.809 106.878 79.8871C106.8 79.9624 106.704 80 106.591 80H105.768C105.655 80 105.558 79.9609 105.476 79.8828C105.398 79.8018 105.359 79.7048 105.359 79.592V77.7951H103.801L102.756 79.6007C102.608 79.8669 102.398 80 102.125 80H101.028C100.883 80 100.81 79.9175 100.81 79.7526ZM103.2 75.0042C102.718 75.0042 102.478 75.2589 102.478 75.7681C102.478 76.2774 102.718 76.532 103.2 76.532H105.359V75.0042H103.2Z" fill="#960301"/>
<path d="M4.17039 4.50082C4.17039 4.35564 4.05599 4.24156 3.92079 4.24156C3.78559 4.24156 3.67119 4.3349 3.54639 4.55268L3.39039 4.80157C3.21359 5.08158 2.84959 5.51714 2.51679 5.82826C2.19439 6.13937 1.8928 6.29493 1.612 6.29493C1.2688 6.29493 1.0296 6.00456 1.0296 5.6001C1.0296 4.7912 1.664 3.46377 2.58959 2.33338C3.29679 1.46225 4.03519 0.829645 4.33679 0.829645C4.45119 0.829645 4.55519 0.93335 4.55519 1.06817C4.55519 1.42077 4.20159 1.94967 3.72319 2.31264C3.42159 2.55116 3.34879 2.65486 3.34879 2.87265C3.34879 3.13191 3.54639 3.32895 3.80639 3.32895C4.03519 3.32895 4.27439 3.17339 4.56559 2.81042C5.03359 2.22967 5.32479 1.52447 5.32479 0.943721C5.32479 0.37334 4.97119 0 4.41999 0C3.70239 0 2.81839 0.622234 1.7888 1.85633C0.644798 3.21487 0 4.58379 0 5.62084C0 6.52308 0.551199 7.14532 1.352 7.14532C2.01759 7.14532 2.78719 6.67864 3.42159 5.89048C3.83759 5.37195 4.17039 4.77046 4.17039 4.50082Z" fill="black"/>
<path d="M5.63427 4.16897C5.71747 3.99267 5.73827 3.94081 5.89427 3.67118L5.93587 3.60896C6.43507 3.39117 7.09026 2.96598 7.52706 2.58227C8.10946 2.06374 8.43186 1.47262 8.43186 0.93335C8.43186 0.57038 8.20306 0.311117 7.88066 0.311117C7.22546 0.311117 6.22707 1.35854 5.30147 3.01783C4.96867 3.6297 4.49027 4.62527 4.18867 5.36158C3.94947 5.93196 3.84547 6.25345 3.84547 6.47123C3.84547 6.66827 4.01187 6.82383 4.21987 6.82383C4.40707 6.82383 4.54227 6.69938 4.70867 6.35715L4.88547 5.99418C5.23907 5.27862 5.71747 4.78083 6.25827 4.54231C5.87347 4.95713 5.59267 5.54825 5.59267 5.9527C5.59267 6.33641 5.89427 6.64753 6.27907 6.64753C6.68466 6.64753 7.22546 6.33641 7.70386 5.82826C8.07826 5.43417 8.29666 5.0712 8.29666 4.84305C8.29666 4.67712 8.19266 4.56305 8.05746 4.56305C7.94306 4.56305 7.85986 4.6149 7.72466 4.77046C7.47506 5.08158 7.30866 5.26825 7.19426 5.39269C7.03826 5.52751 6.85106 5.63122 6.72626 5.63122C6.63266 5.63122 6.57027 5.55862 6.57027 5.46529C6.57027 5.34084 6.71586 5.08158 6.96546 4.78083L7.18386 4.50082C7.49586 4.12748 7.55826 4.00304 7.55826 3.83711C7.55826 3.58821 7.37106 3.39117 7.13186 3.39117C6.84066 3.39117 6.43507 3.59859 5.69667 4.12748L5.63427 4.16897ZM6.44547 2.62375C6.46627 2.59264 6.48707 2.5719 6.48707 2.56153L6.68466 2.22967C6.80946 2.01189 7.06946 1.68003 7.23586 1.50373C7.32946 1.4104 7.41266 1.36891 7.47506 1.36891C7.51666 1.36891 7.55826 1.4104 7.55826 1.45188C7.55826 1.5867 7.38146 1.85633 7.15266 2.09485C6.93426 2.31264 6.71586 2.47856 6.44547 2.62375Z" fill="black"/>
<path d="M9.17473 5.94233C9.17473 5.98381 9.17473 6.00456 9.17473 6.03567C9.17473 6.33641 9.41393 6.58531 9.71553 6.58531C10.1315 6.58531 10.5475 6.35715 11.0051 5.88011C11.3899 5.48603 11.6291 5.08158 11.6291 4.84305C11.6291 4.69786 11.5251 4.58379 11.3795 4.58379C11.2547 4.58379 11.1611 4.65638 11.0259 4.83268C10.6307 5.38232 10.3707 5.62084 10.1627 5.62084C10.0587 5.62084 9.98593 5.54825 9.98593 5.45492C9.98593 5.30973 10.1211 5.04009 10.3291 4.76009C10.4331 4.63564 10.4539 4.58379 10.4539 4.51119C10.4539 4.42823 10.4227 4.37638 10.2875 4.2623C10.3603 4.086 10.3915 3.97193 10.3915 3.806C10.3915 3.33932 10.0899 3.03857 9.64273 3.03857C9.15393 3.03857 8.62353 3.39117 8.13473 4.03415C7.70833 4.59416 7.43793 5.28899 7.43793 5.80752C7.43793 6.28456 7.72913 6.62679 8.11393 6.62679C8.48833 6.62679 8.84193 6.39864 9.17473 5.94233ZM9.11233 5.16454C9.08113 5.19565 9.06033 5.21639 9.04993 5.23713C8.81073 5.52751 8.68593 5.62084 8.52993 5.62084C8.43633 5.62084 8.37393 5.54825 8.37393 5.44455C8.37393 5.2475 8.54033 4.86379 8.75873 4.54231C8.99793 4.21045 9.27873 3.99267 9.45553 3.99267C9.54913 3.99267 9.62193 4.06526 9.62193 4.1586C9.62193 4.29341 9.46593 4.59416 9.29953 4.76009L9.13313 4.93639C9.10193 4.9675 9.08113 5.00898 9.08113 5.05046C9.08113 5.0712 9.09153 5.10232 9.11233 5.16454Z" fill="black"/>
<path d="M12.7335 4.82231C12.6295 4.9675 12.588 5.08158 12.588 5.21639C12.588 5.46529 12.8167 5.64159 13.1183 5.64159C13.4095 5.64159 13.7319 5.51714 14.0647 5.28899C14.4079 5.05046 14.6055 4.78083 14.6055 4.56305C14.6055 4.41786 14.4911 4.29341 14.3455 4.29341C14.2623 4.29341 14.1999 4.32452 14.0127 4.48008C13.7735 4.66675 13.5759 4.7912 13.4823 4.7912C13.4303 4.7912 13.3783 4.74972 13.3783 4.70824C13.3783 4.62527 13.5343 4.45934 13.7735 4.28304C14.0231 4.11711 14.1063 4.00304 14.1063 3.83711C14.1063 3.67118 13.9503 3.50525 13.7839 3.50525C13.6383 3.50525 13.4719 3.59859 13.0871 3.87859C12.6712 4.18971 12.3696 4.44897 11.9952 4.87416L11.9224 4.95713C12.0056 4.76009 12.1928 4.46971 12.38 4.25193C12.6191 3.97193 12.6503 3.9097 12.6503 3.77488C12.6503 3.60896 12.4944 3.46377 12.2968 3.46377C12.1408 3.46377 12.016 3.52599 11.8704 3.68155C11.704 3.84748 11.4648 4.18971 11.2776 4.52156C10.8408 5.26825 10.4456 6.28456 10.4456 6.64753C10.4456 6.86531 10.6016 7.0105 10.82 7.0105C11.0072 7.0105 11.1216 6.92754 11.236 6.70975L11.4648 6.23271C11.7144 5.72455 12.2032 5.18528 12.7335 4.82231Z" fill="black"/>
<path d="M16.209 5.0712C16.1986 4.91565 16.105 4.81194 15.9698 4.81194C15.8346 4.81194 15.7514 4.86379 15.5226 5.1438C15.4186 5.25788 15.2314 5.43417 15.1066 5.53788C14.9506 5.6727 14.857 5.71418 14.7634 5.71418C14.6594 5.71418 14.597 5.64159 14.597 5.53788C14.597 5.34084 14.8258 4.94676 15.2522 4.41786C15.3978 4.22082 15.4498 4.12748 15.4498 3.9823C15.4498 3.76451 15.2938 3.59859 15.0858 3.59859C14.857 3.59859 14.649 3.77488 14.3474 4.22082C13.9002 4.89491 13.6714 5.44455 13.6714 5.89048C13.6714 6.34678 13.973 6.6579 14.389 6.6579C14.7738 6.6579 15.273 6.38827 15.7098 5.92159C15.9802 5.63122 16.2194 5.22676 16.209 5.0712ZM16.9266 1.74225C16.9266 1.5141 16.7706 1.34817 16.5522 1.34817C16.1778 1.34817 15.7618 1.77337 15.7618 2.16745C15.7618 2.37486 15.9386 2.53042 16.157 2.53042C16.5314 2.53042 16.9266 2.12597 16.9266 1.74225Z" fill="black"/>
<path d="M18.2471 2.54079C18.3407 2.41634 18.4031 2.32301 18.5279 2.17782C18.9543 1.66966 19.0167 1.57633 19.0167 1.42077C19.0167 1.24447 18.8607 1.09928 18.6423 1.09928C18.4759 1.09928 18.3407 1.18224 18.1535 1.38966C17.7791 1.80448 17.4255 2.26078 17.0511 2.78968L16.9991 2.87265C16.8847 2.90376 16.7807 2.9245 16.6143 2.94524C16.0423 3.03857 15.8655 3.15265 15.8655 3.43266C15.8655 3.65044 16.0319 3.79563 16.2815 3.79563C16.3335 3.79563 16.3751 3.79563 16.4583 3.78526C15.8863 4.74972 15.6471 5.38232 15.6471 5.9527C15.6471 6.45049 15.9903 6.80309 16.4687 6.80309C16.9159 6.80309 17.3839 6.53345 17.8831 6.00456C18.2887 5.56899 18.5591 5.13343 18.5591 4.90528C18.5591 4.74972 18.4343 4.63564 18.2887 4.63564C18.1743 4.63564 18.0911 4.68749 17.9663 4.85342C17.5191 5.45492 17.0407 5.86974 16.8015 5.86974C16.6663 5.86974 16.5831 5.76603 16.5831 5.6001C16.5831 5.43417 16.6455 5.23713 16.8015 4.87416C17.0095 4.37638 17.1447 4.12748 17.4879 3.6297L17.5711 3.50525C17.6647 3.47414 17.7063 3.46377 17.8311 3.43266C18.1847 3.33932 18.5799 3.25636 18.7463 3.23562C18.9855 3.2045 19.0895 3.17339 19.1727 3.11117C19.2871 3.0282 19.3599 2.89339 19.3599 2.75857C19.3599 2.54079 19.1935 2.37486 18.9855 2.37486C18.9231 2.37486 18.7983 2.3956 18.6735 2.42671L18.3511 2.50968C18.3407 2.50968 18.3095 2.52005 18.2471 2.54079Z" fill="black"/>
<path d="M19.7307 7.17643L19.8243 7.12458C20.6875 6.66827 21.1347 6.32604 21.6547 5.70381C21.9355 5.37195 22.0915 5.07121 22.0915 4.88454C22.0915 4.74972 21.9875 4.64601 21.8419 4.64601C21.7275 4.64601 21.6443 4.70824 21.4987 4.90528C21.3531 5.09195 21.0619 5.41343 20.7707 5.68307C20.5731 5.88011 20.4067 6.00456 20.1987 6.13937L20.2299 6.05641C20.5107 5.50677 20.8227 4.94676 21.0203 4.62527C21.1763 4.36601 21.2803 4.18971 21.3323 4.10674C21.3947 4.00304 21.4259 3.88896 21.4259 3.81637C21.4259 3.64007 21.2699 3.48451 21.0723 3.48451C20.9683 3.48451 20.8851 3.52599 20.7811 3.60896C20.6771 3.68155 20.6251 3.74377 20.2195 4.25193C19.8763 4.67712 19.4707 5.13343 19.1691 5.41343C18.9715 5.58973 18.7635 5.72455 18.6491 5.72455C18.5867 5.72455 18.5243 5.66233 18.5243 5.61047C18.5243 5.39269 18.9715 4.83268 19.5539 4.29341C19.8139 4.06526 19.8867 3.94081 19.8867 3.76451C19.8867 3.57784 19.7515 3.44303 19.5643 3.44303C19.3251 3.44303 18.9611 3.71266 18.5035 4.22082C17.9419 4.85342 17.6195 5.48603 17.6195 5.99418C17.6195 6.3779 17.8795 6.66827 18.2331 6.66827C18.6491 6.66827 19.1171 6.33641 19.5331 5.76603C19.4395 5.97344 19.3875 6.07715 19.2731 6.3053C19.1379 6.5542 19.1067 6.61642 19.0547 6.72012L18.8155 6.82383C18.3579 7.04161 18.0771 7.16606 17.8795 7.26976C17.5675 7.43569 17.3283 7.58088 17.1515 7.72607C16.6731 8.12015 16.4235 8.56608 16.4235 9.01202C16.4235 9.52018 16.8291 9.88315 17.3907 9.88315C18.0771 9.88315 18.6699 9.37499 19.1795 8.36904C19.3147 8.08904 19.5851 7.49792 19.6995 7.22828L19.7307 7.17643ZM18.6283 7.67422C18.5971 7.73644 18.5763 7.78829 18.5555 7.8194C18.1499 8.63868 17.8171 9.02239 17.5259 9.02239C17.4115 9.02239 17.3179 8.93942 17.3179 8.82535C17.3179 8.63868 17.5051 8.38979 17.8171 8.15126C17.9939 8.00607 18.2539 7.86089 18.6283 7.67422Z" fill="black"/>
<path d="M25.7839 1.55558L25.7319 1.62818C25.4511 2.02226 24.9727 2.76894 24.6191 3.39117C24.2031 4.09637 23.9119 4.69786 23.5999 5.43417C23.3711 5.96307 23.2775 6.27419 23.2775 6.50234C23.2775 6.80309 23.5583 7.07272 23.8807 7.07272C24.0783 7.07272 24.1095 7.02087 24.2967 6.44012C24.4943 5.81789 24.8895 4.92602 25.3263 4.07563L25.3783 3.9823C25.8671 3.82674 26.5223 3.71266 26.9799 3.71266C27.0527 3.71266 27.1151 3.71266 27.1671 3.72303C27.2399 3.7334 27.2919 3.7334 27.3335 3.7334C27.5311 3.7334 27.6975 3.50525 27.6975 3.24599C27.6975 2.99709 27.4895 2.86228 27.1151 2.86228C26.7823 2.86228 26.2415 2.93487 25.9087 3.01783C26.2727 2.37486 26.6887 1.75262 26.9487 1.45188L27.0319 1.43114C27.7183 1.26521 28.3423 1.1615 28.6959 1.1615C28.7999 1.1615 28.8623 1.17187 28.9767 1.20299C29.0495 1.21336 29.1119 1.22373 29.1535 1.22373C29.3615 1.22373 29.5903 0.974833 29.5903 0.73631C29.5903 0.466675 29.2991 0.300746 28.8207 0.300746C28.2279 0.300746 27.1255 0.466675 26.4183 0.663716C25.8463 0.819274 25.6071 0.985203 25.6071 1.25484C25.6071 1.36891 25.6591 1.45188 25.7839 1.55558Z" fill="black"/>
<path d="M28.807 5.92159C28.7862 6.00456 28.7758 6.04604 28.7758 6.10826C28.7758 6.47123 29.0254 6.74087 29.3686 6.74087C29.7638 6.74087 30.2421 6.44012 30.7205 5.88011C31.0637 5.48603 31.2717 5.10232 31.2717 4.87416C31.2717 4.72898 31.1677 4.6149 31.0325 4.6149C30.9181 4.6149 30.8245 4.67712 30.6997 4.83268L30.3981 5.21639C30.1174 5.55862 29.9094 5.73492 29.7742 5.73492C29.691 5.73492 29.6286 5.65196 29.6286 5.54825C29.6286 5.35121 29.7638 5.06083 30.0966 4.54231C30.4397 4.02378 30.4918 3.9097 30.4918 3.7334C30.4918 3.52599 30.3461 3.3808 30.1382 3.3808C29.9718 3.3808 29.8262 3.48451 29.691 3.70229L29.3374 4.25193C29.1086 4.62527 28.8174 5.02972 28.5886 5.28899C28.4534 5.44455 28.3286 5.52751 28.235 5.52751C28.1622 5.52751 28.1102 5.47566 28.1102 5.36158C28.1102 5.01935 28.3702 4.50082 28.8278 3.88896C29.0462 3.59859 29.0878 3.50525 29.0878 3.34969C29.0878 3.16302 28.9422 3.01783 28.7446 3.01783C28.5054 3.01783 28.2142 3.28747 27.8502 3.82674C27.403 4.49045 27.1222 5.23713 27.1222 5.78677C27.1222 6.26382 27.4238 6.59568 27.819 6.59568C28.183 6.59568 28.495 6.38827 28.807 5.92159Z" fill="black"/>
<path d="M31.7302 4.72898C31.7614 4.67712 31.7822 4.63564 31.803 4.60453L32.0734 4.1586L32.3646 3.71266C32.3958 3.64007 32.427 3.54673 32.427 3.4534C32.427 3.2771 32.2814 3.12154 32.1046 3.12154C31.8342 3.12154 31.5326 3.44303 31.0958 4.21045C30.555 5.15417 30.0974 6.3053 30.0974 6.68901C30.0974 6.91717 30.2638 7.09346 30.4718 7.09346C30.6278 7.09346 30.763 6.98976 30.8566 6.78235L31.0334 6.36753C31.2622 5.83863 31.8758 5.20602 32.4582 4.88454C32.1254 5.35121 32.011 5.61047 32.011 5.98381C32.011 6.39864 32.3022 6.68901 32.6974 6.68901C33.0822 6.68901 33.5502 6.42975 33.9662 5.97344C34.351 5.53788 34.611 5.08158 34.611 4.84305C34.611 4.69786 34.507 4.59416 34.3614 4.59416C34.2054 4.59416 34.1742 4.6149 33.7894 5.13343C33.4982 5.52751 33.2798 5.70381 33.1134 5.70381C33.0302 5.70381 32.9782 5.65196 32.9782 5.55862C32.9782 5.3201 33.3214 4.77046 33.779 4.27267C34.0598 3.9823 34.1326 3.85785 34.1326 3.68155C34.1326 3.47414 33.9454 3.31858 33.7062 3.31858C33.519 3.31858 33.3422 3.39117 33.0302 3.60896C32.6662 3.85785 32.3022 4.1586 31.907 4.55268L31.7302 4.72898Z" fill="black"/>
<path d="M36.611 3.18376C36.455 3.09043 36.3094 3.04895 36.1118 3.04895C35.675 3.04895 35.1446 3.32895 34.7702 3.76451C34.1566 4.44897 33.7926 5.29936 33.7926 6.0253C33.7926 6.58531 34.1046 6.96902 34.5726 6.96902C34.9782 6.96902 35.3942 6.66827 35.6646 6.18086C35.6854 6.60605 35.9142 6.85494 36.2678 6.85494C36.6214 6.85494 36.9854 6.59568 37.4326 6.03567C37.7966 5.56899 38.0774 5.06083 38.0774 4.86379C38.0774 4.71861 37.963 4.60453 37.8278 4.60453C37.6926 4.60453 37.5886 4.68749 37.391 4.9675C37.2558 5.16454 37.027 5.45492 36.923 5.56899C36.819 5.6727 36.7046 5.74529 36.6214 5.74529C36.5382 5.74529 36.4758 5.66233 36.4758 5.54825C36.4758 5.43417 36.5174 5.26825 36.611 5.01935C36.7878 4.56305 37.0686 3.95118 37.4014 3.32895C37.7862 2.61338 38.0046 2.22967 38.2958 1.77337C38.431 1.56595 38.4726 1.46225 38.4726 1.3378C38.4726 1.14076 38.3062 0.985203 38.119 0.985203C37.859 0.985203 37.651 1.21336 37.287 1.87707C36.975 2.46819 36.8814 2.64449 36.611 3.18376ZM36.2262 3.94081L35.883 4.62527C35.623 5.15417 35.4462 5.48603 35.3318 5.6727C35.1654 5.93196 35.0094 6.06678 34.8742 6.06678C34.7702 6.06678 34.7078 5.97344 34.7078 5.82826C34.7078 5.45492 34.9574 4.87416 35.3214 4.39712C35.6022 4.02378 35.7894 3.88896 36.039 3.88896C36.1118 3.88896 36.1534 3.89933 36.2262 3.94081Z" fill="black"/>
</svg>
