<svg width="743" height="743" viewBox="0 0 743 743" fill="none" xmlns="http://www.w3.org/2000/svg">
<path fill-rule="evenodd" clip-rule="evenodd" d="M283.197 662.401C333.713 679.385 389.166 675.2 440.973 662.688C513.562 645.157 584.684 609.503 628.719 549.234C643.673 528.766 655.521 504.501 654.238 479.191C652.653 447.937 631.354 419.185 634.448 388.044C636.897 363.391 654.232 342.661 659.94 318.552C668.439 282.651 646.407 242.122 611.64 229.705C590.591 222.188 567.535 224.291 545.182 224.478C502.867 224.833 460.501 217.893 420.514 204.057C397.549 196.11 375.429 185.936 352.814 177.044C271.502 145.076 178.432 130.384 97.3679 162.977C63.4843 176.6 30.8621 200.876 20.9322 235.998C11.5998 269.006 24.4367 304.815 44.7501 332.464C65.0634 360.113 92.3105 381.734 116.869 405.698C141.427 429.662 164.208 457.622 171.587 491.12C175.966 510.996 174.656 531.74 178.394 551.747C188.176 604.101 232.68 645.417 283.197 662.401Z" fill="#FF866B"/>
<path d="M332.217 186.665C334.12 187.777 335.458 189.689 336.255 191.744C338.502 197.54 336.692 204.164 333.729 209.629C330.766 215.095 326.695 219.922 323.973 225.512C321.508 230.574 320.207 236.199 320.198 241.829C320.197 242.6 319.154 243.003 318.451 242.687C317.748 242.372 317.344 241.639 317 240.949C309.833 226.554 308.185 208.647 316.001 194.594C317.635 191.656 319.728 188.858 322.617 187.14C325.506 185.422 329.316 184.968 332.217 186.665Z" fill="white"/>
<path d="M266.683 231.198C269.094 231.977 271.109 233.66 272.852 235.498C281.382 244.495 284.366 257.251 287.018 269.362C287.184 270.119 286.553 271.331 286.061 270.731C281.339 264.974 274.539 261.405 268.61 256.899C262.682 252.394 257.207 246.066 257.23 238.619C257.237 236.344 257.852 233.937 259.532 232.402C261.401 230.692 264.273 230.418 266.683 231.198Z" fill="white"/>
<path fill-rule="evenodd" clip-rule="evenodd" d="M276.518 174.725C273.061 187.919 279.396 201.5 285.661 213.615C286.275 214.801 287.285 216.185 288.587 215.888C288.052 207.929 290.04 200.023 290.34 192.052C290.64 184.081 288.785 175.287 282.461 170.426C281.307 169.539 279.543 169.905 278.473 170.891C277.403 171.877 276.887 173.318 276.518 174.725L276.518 174.725Z" fill="white"/>
<path fill-rule="evenodd" clip-rule="evenodd" d="M283.189 557.373C286.095 561.032 286.176 566.253 284.944 570.76C283.379 576.486 279.825 581.604 275.134 585.229C273.963 586.133 298.541 602.518 277.983 603.448C257.426 604.378 268.471 589.08 266.906 589.579C263.987 590.512 260.633 591.134 258.855 593.63C257.076 596.126 259.283 600.834 262.092 599.609C263.95 598.799 265.649 601.676 264.667 603.448C263.685 605.221 261.459 605.823 259.455 606.128C254.932 606.819 250.08 606.809 246.051 604.64C242.021 602.471 239.163 597.639 240.471 593.254C241.155 590.963 238.901 588.656 236.535 588.315C234.169 587.974 231.841 588.968 229.629 589.873C202.697 600.894 171.61 601.373 144.352 591.189C117.093 581.004 93.9374 560.257 80.8309 534.277C77.6206 527.913 74.9382 521.17 70.409 515.667C63.6255 507.424 52.8067 502.673 42.1475 503.255C38.526 503.452 36.5849 498.394 38.2461 495.17C39.9073 491.946 43.5272 490.326 46.8932 488.975C60.411 483.55 74.3427 478.612 88.8597 477.423C121.671 474.735 154.978 493.097 171.248 521.717C178.414 534.323 182.522 548.605 190.759 560.54C198.996 572.475 213.446 582.047 227.468 578.35C228.71 578.022 228.832 576.34 228.785 575.056C228.368 563.736 236.216 552.613 247.021 549.21C246.112 550.08 249.533 548.548 255.088 545.899C257.276 544.856 234.414 538.68 215.135 528.275C195.116 517.471 200.558 497.178 209.738 481.459C211.58 478.304 170.641 450.526 178.315 443.658C189.215 433.901 222.217 464.37 224.559 462.113C225.896 460.823 226.921 458.478 227.468 458.241C232.318 456.137 236.154 451.426 240.471 449.878C243.533 448.781 247.203 450.713 250.009 449.878C253.244 448.916 227.932 427.928 235.413 421.367C242.895 414.805 265.535 446.268 268.405 445.94C333.063 438.553 302.483 524.168 303.674 525.423C307.692 529.658 277.647 550.395 283.189 557.373Z" fill="white"/>
<path fill-rule="evenodd" clip-rule="evenodd" d="M262.774 512.664C266.604 512.394 268.544 509.07 267.108 505.24C265.672 501.41 261.403 498.524 257.574 498.794C253.744 499.064 251.803 502.388 253.239 506.218C254.675 510.048 258.944 512.934 262.774 512.664Z" fill="#FFB61D"/>
<path fill-rule="evenodd" clip-rule="evenodd" d="M307.635 485.921C310.451 485.728 311.879 483.36 310.823 480.631C309.766 477.903 306.627 475.847 303.81 476.039C300.993 476.231 299.565 478.599 300.622 481.328C301.678 484.057 304.818 486.113 307.635 485.921Z" fill="#FFB61D"/>
<ellipse cx="333.293" cy="516.265" rx="42.8636" ry="42.4612" fill="white"/>
<path d="M474.345 535.465C469.795 538.018 463.161 540.634 460.22 536.325C458.849 534.316 459.129 531.652 459.465 529.243C462.328 508.685 468.164 485.154 471.027 464.596C476.859 450.893 496.869 376.54 505.13 371.5C505.997 370.971 501.83 364.51 501.397 353.112C501.296 350.465 465.656 335.299 456.666 318.269C452.848 311.035 446.869 288.592 449.272 279.481C452.44 267.466 465.035 269.436 465.328 268.842C465.937 267.608 499.92 269.584 510.624 285.21C519.265 297.823 512.383 326.545 512.573 326.495C515.11 325.82 515.284 368.562 517.809 369.038C548.616 374.837 577.448 459.52 578.667 458.895C586.401 468.099 594.135 477.304 601.868 486.509C606.763 492.334 611.96 500.004 608.803 506.927C607.172 510.505 603.641 512.811 600.122 514.564C568.938 530.1 527.812 519.219 494.009 527.656C487.146 529.369 480.514 532.003 474.345 535.465Z" fill="white"/>
<ellipse cx="495.807" cy="310.096" rx="7.40814" ry="6.95218" fill="#FFB61D"/>
<path fill-rule="evenodd" clip-rule="evenodd" d="M685.159 434.278C682.018 438.731 678.183 442.912 673.217 445.157C668.251 447.401 661.969 447.348 657.748 443.9C654.357 454.042 641.047 459.41 631.569 454.458C630.462 462.758 623.767 470.017 615.585 471.792C607.402 473.567 598.302 469.733 593.855 462.639C588.939 454.796 572.583 459.208 570.654 450.155C569.619 455.341 564.825 459.532 559.547 459.865C554.269 460.199 548.986 456.643 547.307 451.628C541.566 454.314 534.448 451.476 530.32 446.666C526.193 441.856 524.389 435.526 522.812 429.387C510.657 382.076 505.272 333.12 505.515 284.274C504.302 290.205 496.041 292.306 490.776 289.316C485.512 286.326 482.867 280.239 481.322 274.385C480.072 269.652 473.943 268.02 469.157 269.049C464.371 270.079 460.059 272.84 455.224 273.605C445.859 275.086 436.418 268.125 433.472 259.113C430.526 250.101 433.284 239.888 438.999 232.322C444.714 224.757 453.044 219.545 461.741 215.768C472.961 210.895 485.099 208.145 497.324 207.707C500.296 207.6 503.882 207.27 505.204 204.605C511.753 207.637 519.192 207.845 526.342 208.82C543.075 211.103 559.164 217.942 572.419 228.406C590.733 242.864 603.207 263.603 621.159 278.508C650.786 303.106 693.893 310.758 716.808 341.704C723.488 350.725 728.002 361.338 729.866 372.406C731.615 382.795 730.774 394.288 724.281 402.583C717.787 410.878 704.433 414.17 696.398 407.357C694.675 417.007 690.808 426.268 685.159 434.278Z" fill="white"/>
<path fill-rule="evenodd" clip-rule="evenodd" d="M508.86 398.733C509.712 394.714 510.294 390.374 508.624 386.62C506.954 382.867 502.217 380.216 498.598 382.16C485.953 388.952 478.388 402.304 472.4 415.349C466.412 428.394 461.03 442.261 450.671 452.197C442.074 460.442 430.352 465.345 418.446 465.677C417.253 466.362 418.171 468.363 419.494 468.734C420.818 469.105 422.245 468.642 423.601 468.871C427.345 469.503 428.147 475.121 425.704 478.028C423.261 480.935 419.197 481.759 415.455 482.406C412.985 482.832 414.021 487.15 416.486 487.599C418.952 488.048 421.218 486.347 423.373 485.07C425.529 483.792 428.602 482.998 430.301 484.839C427.104 486.44 424.898 489.858 424.758 493.432C428.795 489.211 434.61 486.748 440.451 486.784C438.888 488.718 437.326 490.652 435.763 492.586C442.284 491.225 447.688 485.578 448.761 479.004C449.765 472.854 455.99 469.25 461.307 465.999C485.391 451.272 503.009 426.351 508.86 398.733Z" fill="white"/>
<path fill-rule="evenodd" clip-rule="evenodd" d="M371.1 0.668484C370.635 0.798062 369.899 0.709925 369.972 0.232317C370.251 0.0894481 370.562 -0.0575574 370.865 0.0227811C371.167 0.10312 371.364 0.540815 371.121 0.737661L371.1 0.668484Z" fill="#00160A"/>
<path fill-rule="evenodd" clip-rule="evenodd" d="M453.215 593.27C451.846 592.618 449.817 594.288 450.772 595.465C452.715 597.859 453.996 600.783 454.439 603.833C456.322 602.327 455.957 599.415 455.413 597.065C455.071 595.589 454.583 593.922 453.215 593.27ZM459.492 605.398L460.957 605.367C463.573 605.319 466.232 605.289 469.765 605.263L483.275 605.174C484.845 605.158 486.267 605.14 487.76 605.117C489.011 605.097 490.042 606.095 490.061 607.347C490.081 608.598 489.083 609.628 487.831 609.648L482.521 609.713L466.275 609.826C462.873 609.86 460.21 609.907 457.072 609.984C455.821 610.014 454.781 609.025 454.751 607.774C454.72 606.523 455.71 605.484 456.961 605.453L458.506 605.42C457.669 602.105 457.578 598.604 458.248 595.251C461.334 597.502 461.816 602.449 459.492 605.398ZM357.669 599.599C358.096 598.658 358.614 597.689 359.504 597.164C360.394 596.64 361.751 596.786 362.209 597.712C359.591 601.446 358.018 605.906 357.714 610.457C356.937 610.942 355.847 610.38 355.462 609.549C355.076 608.719 355.201 607.75 355.371 606.85C355.846 604.353 356.619 601.913 357.669 599.599ZM202.242 611.992C212.162 611.46 221.379 610.965 226.353 610.887C226.353 610.887 240.468 607.199 229.898 607.314L226.257 607.363C214.632 607.547 161.299 610.599 162.38 612.921C162.929 614.101 183.8 612.981 202.242 611.992ZM437.876 608.378C437.843 607.127 436.802 606.139 435.551 606.173C425.69 606.433 416.37 606.656 404.77 606.907L366.56 607.686C365.309 607.71 364.315 608.745 364.339 609.996C364.364 611.247 365.398 612.242 366.649 612.217C388.228 611.792 402.831 611.492 415.429 611.203L435.671 610.703C436.922 610.67 437.909 609.629 437.876 608.378ZM668.387 602.279C638.684 600.055 634.616 600.757 634.616 600.757C617.765 600.757 603.512 601.147 577.88 602.207L561.487 602.903C546.027 603.563 537.308 603.904 528.823 604.15L521.689 604.336C520.438 604.366 519.448 605.404 519.477 606.655C519.507 607.906 520.545 608.896 521.796 608.867C530.679 608.657 537.983 608.413 550.228 607.911L578.92 606.699C601.653 605.764 615.35 605.365 630.094 605.299L635.616 605.29C641.135 605.3 646.247 605.355 650.761 605.403C662.668 605.53 670.41 605.613 670.477 604.708C670.571 603.46 669.635 602.373 668.387 602.279ZM310.691 605.219L304.903 619.962C301.808 614.727 304.861 606.95 310.691 605.219ZM316.826 616.51C316.644 615.544 315.21 614.905 314.658 615.719L309.35 623.557C308.235 625.204 307.494 628.073 309.4 628.641L315.868 619.214C316.424 618.404 317.007 617.476 316.826 616.51ZM275.588 615.583C276.058 614.898 276.638 614.16 277.463 614.066C278.288 613.972 279.115 615.069 278.509 615.638L275.007 624.753C273.592 623.791 273.096 621.861 273.389 620.176C273.682 618.49 274.62 616.994 275.588 615.583ZM252.002 619.419C251.905 619.982 252.125 620.548 252.358 621.07C253.24 623.045 254.378 624.905 255.733 626.591C257.014 625.496 257.082 623.451 256.349 621.935C255.615 620.418 254.267 619.305 252.959 618.243C252.467 618.436 252.091 618.898 252.002 619.419ZM287.605 625.115C288.514 626.929 288.242 629.27 286.942 630.828C285.34 628.838 284.457 626.281 284.49 623.726C284.5 622.981 284.672 622.107 285.348 621.793C286.751 621.142 287.534 623.457 287.352 624.993L287.605 625.115ZM297.804 612.233C298.052 611.448 298.346 610.602 299.037 610.154C299.727 609.706 300.908 610.007 300.972 610.827C300.277 613.851 299.597 616.879 298.934 619.911C298.156 620.647 296.754 619.99 296.385 618.985C296.015 617.98 296.338 616.867 296.661 615.846L297.804 612.233Z" fill="#00160A"/>
<path fill-rule="evenodd" clip-rule="evenodd" d="M171.533 442.313L174.857 445.208L170.641 447.586C179.043 449.063 186.206 454.557 192.072 460.75C201.568 470.774 208.615 483.101 212.437 496.37C214.822 488.183 210.329 479.655 205.368 472.719C197.916 462.303 189.014 452.925 179 444.941C192.289 441.744 204.62 452.198 214.307 461.841C216.054 463.58 217.949 465.782 217.418 468.189C217.327 468.601 217.177 469.04 217.026 469.481L217.026 469.481L217.026 469.481C216.583 470.777 216.133 472.093 217.157 472.788C223.728 465.334 232.117 459.493 241.389 455.917C236.621 455.807 231.829 457.274 227.939 460.034C233.706 453.38 242.635 449.595 251.427 450.078C248.789 441.887 244.436 434.253 238.73 427.811C242.029 425.545 246.363 428.451 249.149 431.324C254.037 436.363 258.511 441.804 262.511 447.573C283.231 447.187 303.367 461.623 309.653 481.371C312.049 480.326 311.46 476.77 310.304 474.426C302.137 457.867 285.092 446.029 266.724 444.16C262.629 443.743 260.402 440.104 258.119 436.372C256.155 433.164 254.15 429.887 250.88 428.533C243.805 425.603 237.443 420.969 232.484 415.135C232.223 417.535 233.399 420.036 235.413 421.367L228.242 419.844C228.842 421.514 230.209 422.891 231.874 423.504L227.861 424.872C236.828 428.375 243.878 436.431 246.161 445.783L229.838 454.66C232.586 450.888 235.858 447.5 239.532 444.623C234.361 444.65 230.444 449.101 227.257 453.173C228.415 449.619 229.763 446.128 231.294 442.718C225.207 448.166 221.532 456.217 221.402 464.384C208.27 450.286 191.486 439.618 173.145 433.715C176.302 435.863 179.428 438.056 182.522 440.292C178.979 438.739 175.062 438.051 171.202 438.303L178.703 442.12L171.533 442.313ZM261.015 548.585L285.624 535.053C290.122 532.58 295.467 530.052 300.161 532.128C294.848 538.986 288.571 545.096 281.572 550.222C281.499 552.604 285.384 551.716 287.066 550.029L307.764 529.27C306.035 528.602 304.038 528.662 302.353 529.432L299.92 525.897C286.683 531.044 273.926 537.425 261.868 544.93C257.445 547.683 251.684 545.512 247.127 542.989C235.509 536.557 225.065 528.013 216.459 517.899C210.214 510.56 204.68 501.197 206.737 491.783L206.764 491.66C207.375 488.865 208.18 485.184 205.646 483.916C202.097 490.771 202.506 499.193 205.35 506.369C208.193 513.545 213.241 519.636 218.741 525.052C231.118 537.239 246.222 546.641 262.621 552.367C264.119 552.89 266.432 552.914 266.601 551.337C264.903 550.126 263.009 549.193 261.015 548.585ZM285.101 469.699C286.065 469.591 287.112 469.602 287.912 470.15C288.713 470.698 289.076 471.957 288.408 472.661C285.24 475.998 286.223 482.266 290.261 484.472C289.945 482.749 290.524 480.755 292.036 479.871C293.548 478.987 295.913 479.795 296.18 481.526C293.703 481.892 292.01 484.893 292.978 487.203C293.839 489.257 293.075 491.865 291.242 493.13C289.409 494.396 286.7 494.185 285.085 492.652C284.481 492.079 283.953 491.326 283.432 490.582C282.313 488.985 281.223 487.43 279.471 487.786C279.228 487.836 278.978 487.924 278.728 488.012C278.119 488.226 277.515 488.439 277.023 488.084C276.54 487.736 276.511 487.041 276.528 486.445C276.555 485.551 276.597 484.604 277.09 483.858C277.584 483.111 278.702 482.704 279.399 483.265C279.644 483.463 279.798 483.741 279.952 484.02C280.011 484.127 280.07 484.234 280.134 484.337C281.347 486.27 284.796 485.992 285.685 483.89C285.12 480.561 281.127 478.301 277.983 479.53C276.579 480.079 275.03 478.589 275.013 477.082C274.996 475.574 276.015 474.253 277.14 473.249C279.344 471.285 282.167 470.026 285.101 469.699ZM290.593 486.597C289.339 486.575 287.979 486.586 286.982 487.346C285.985 488.106 285.758 489.92 286.868 490.503C287.275 490.717 287.758 490.719 288.216 490.678C289.256 490.587 290.346 490.257 291 489.444C291.654 488.631 291.644 487.243 290.766 486.678L290.593 486.597ZM352.245 486.203C355.485 482.763 361.826 483.088 364.697 486.841C365.881 488.389 368.724 487.52 369.282 485.654C369.84 483.787 368.548 481.746 366.8 480.886C365.052 480.026 362.994 480.098 361.069 480.395C359.935 480.57 358.765 480.806 357.582 481.044L357.582 481.044C352.627 482.043 347.463 483.083 343.908 479.846C340.152 476.425 334.703 475.379 329.651 475.916C324.599 476.452 319.817 478.391 315.113 480.31L304.113 484.798C300.575 486.241 296.701 488.003 295.215 491.524C293.729 495.044 296.979 500.198 300.525 498.773C313.997 493.361 329.938 498.319 340.943 507.792C351.947 517.264 358.881 530.546 364.749 543.827C365.594 545.74 368.626 545.59 370.025 544.036C371.424 542.482 371.635 540.227 371.779 538.141L373.453 513.805C373.679 510.515 373.883 507.081 372.595 504.045C371.175 500.699 368.164 498.344 365.274 496.14L352.245 486.203ZM341.665 504.642C329.589 495.042 312.797 490.483 298.267 495.667C297.146 491.749 301.752 488.794 305.553 487.323L319.429 481.952C323.411 480.411 327.51 478.847 331.781 478.868C339.972 478.91 346.442 484.456 352.873 489.968C355.047 491.831 357.217 493.691 359.447 495.332C360.073 495.793 360.714 496.245 361.358 496.698C364.393 498.834 367.474 501.003 369.117 504.274C370.74 507.504 370.678 511.29 370.53 514.901C370.167 523.713 369.503 532.512 368.539 541.279C368.438 542.198 367.53 543.421 366.92 542.725C361.63 528.233 353.741 514.243 341.665 504.642ZM245.086 463.453C246.731 463.389 248.668 463.612 249.508 465.028C249.898 465.687 249.959 466.531 249.666 467.238C245.469 464.86 239.327 467.6 238.292 472.312C236.202 470.959 236.43 467.561 238.184 465.795C239.938 464.03 242.598 463.55 245.086 463.453ZM272.239 449.214C269.096 452.378 269.093 458.106 272.234 461.272C273.383 462.43 273.019 464.537 271.801 465.62C270.582 466.703 268.808 466.931 267.189 466.735C263.914 466.34 261.138 464.515 258.338 462.676C256.457 461.44 254.565 460.197 252.506 459.377C246.042 456.803 238.394 458.773 232.912 463.058C227.43 467.342 223.839 473.619 221.279 480.088C219.224 485.281 217.741 491.057 219.331 496.411C221.471 503.62 228.463 508.095 234.934 511.926C229.301 511.548 224.473 518.148 226.538 523.402C227.373 525.524 229.023 527.209 230.692 528.763C235.285 533.036 240.355 536.798 245.777 539.955C246.793 540.547 248.848 540.03 248.08 539.139L231.35 526.355C227.494 523.408 229.813 516.595 234.252 514.635C238.691 512.675 243.818 513.969 248.488 515.288L232.583 506.038C229.051 503.985 225.347 501.758 223.407 498.162C220.461 492.703 222.484 485.974 224.879 480.252C226.975 475.243 229.396 470.232 233.244 466.401C237.092 462.571 242.637 460.073 247.968 461.103C251.279 461.743 254.152 463.627 256.996 465.492L256.996 465.492L256.996 465.492L256.997 465.493L256.997 465.493C257.58 465.875 258.163 466.257 258.747 466.627C262.181 468.801 266.21 470.687 270.185 469.84C274.161 468.992 277.348 464.168 275.184 460.728C273.039 457.32 271.994 453.232 272.239 449.214ZM260.487 475.325C261.643 476.123 262.915 477.113 263.006 478.515C263.037 478.995 262.899 479.511 262.536 479.828C262.087 480.22 261.428 480.219 260.832 480.198C259.065 480.135 257.181 480.034 255.749 478.996C254.318 477.958 253.704 475.614 255.012 474.424C256.495 473.073 258.835 474.187 260.487 475.325ZM74.0247 514.172C66.5597 505.293 55.235 499.778 43.6415 499.377C41.2992 499.296 42.7741 495.52 44.7925 494.328C64.0503 482.962 87.2305 477.965 109.287 481.651C131.343 485.336 152.007 497.959 164.338 516.614C168.947 523.587 172.358 531.239 175.768 538.888L175.768 538.888C176.887 541.398 178.005 543.908 179.166 546.393C183.865 556.451 189.478 566.406 197.977 573.548C206.476 580.69 218.401 584.59 228.945 581.119C229.725 580.862 230.537 580.535 231.018 579.87C231.623 579.033 231.54 577.919 231.463 576.876L231.455 576.778L231.445 576.627C230.685 565.776 239.164 556.734 247.021 549.21C236.216 552.613 228.368 563.736 228.785 575.056C228.832 576.34 228.71 578.022 227.468 578.35C213.446 582.047 198.996 572.475 190.759 560.54C186.013 553.663 182.638 546.007 179.258 538.34L179.258 538.34L179.258 538.34L179.258 538.34C176.772 532.702 174.285 527.059 171.248 521.717C154.978 493.097 121.671 474.735 88.8597 477.423C74.3427 478.612 60.411 483.55 46.8932 488.975C43.5272 490.326 39.9073 491.946 38.2461 495.17C36.5849 498.394 38.526 503.452 42.1475 503.255C52.8067 502.673 63.6255 507.424 70.409 515.667C73.9179 519.931 76.3183 524.938 78.7146 529.937L78.7148 529.938L78.715 529.938L78.7152 529.938L78.7155 529.939L78.7157 529.939L78.7159 529.94L78.7161 529.94L78.7163 529.941L78.7165 529.941L78.7168 529.942L78.717 529.942L78.7178 529.944C79.4135 531.395 80.1088 532.846 80.8309 534.277C93.9374 560.257 117.093 581.004 144.352 591.189C171.61 601.373 202.697 600.894 229.629 589.873L229.826 589.792C231.979 588.91 234.239 587.984 236.535 588.315C238.901 588.656 241.155 590.963 240.471 593.254C239.163 597.639 242.021 602.471 246.051 604.64C250.08 606.809 254.932 606.819 259.455 606.128C261.459 605.823 263.685 605.221 264.667 603.448C265.649 601.676 263.95 598.799 262.092 599.609C259.283 600.834 257.076 596.126 258.855 593.63C260.352 591.528 262.966 590.755 265.498 590.007L265.498 590.007L265.499 590.006C265.973 589.866 266.445 589.727 266.906 589.579C275.535 586.823 282.556 579.498 284.944 570.76C286.176 566.253 286.095 561.032 283.189 557.373C277.647 550.395 265.222 554.077 261.222 562.041C257.223 570.005 259.273 579.622 262.332 587.992L255.37 588.692C256.524 592.568 256.032 596.905 254.038 600.424L259.508 602.503C253.524 606.318 244.223 602.061 243.201 595.038C243.091 594.285 243.057 593.505 243.022 592.726C242.943 590.922 242.864 589.126 241.849 587.684C239.538 584.397 234.513 585.425 230.694 586.672C214.999 591.797 198.54 594.575 182.033 594.884C173.534 595.044 164.943 594.539 156.764 592.224C148.56 589.902 140.977 585.822 133.529 581.672C118.081 573.065 102.31 563.489 92.7654 548.602C89.7826 543.949 87.4815 538.88 85.1848 533.82C82.0373 526.885 78.8982 519.969 74.0247 514.172ZM269.019 557.64C273.509 555.063 280.269 556.503 282.251 561.286C283.422 564.11 282.798 567.354 281.776 570.236C279.611 576.345 275.704 581.827 270.635 585.867C268.94 587.218 265.802 588.027 265.141 585.962C263.564 581.031 261.969 575.983 262.125 570.808C262.282 565.633 264.529 560.218 269.019 557.64ZM291.235 556.107L294.14 557.217C293.202 558.543 292.202 559.922 290.739 560.629C289.277 561.337 287.216 561.089 286.427 559.67L291.136 556.439L291.235 556.107ZM302.923 552.947C301.514 552.913 300.029 552.858 298.832 552.114C296.626 550.742 296.305 547.718 296.218 545.121C293.767 546.16 293.029 549.601 294.282 551.95C295.536 554.299 298.199 555.6 300.832 555.997C302.881 556.305 304.959 556.158 307.033 556.011C307.623 555.969 308.212 555.927 308.801 555.896C313.031 555.671 317.337 555.981 321.628 556.289L321.629 556.289C329.761 556.873 337.842 557.454 345.261 554.391C350.826 552.093 355.391 547.951 359.834 543.888C360.589 543.197 361.4 542.393 361.441 541.371C361.482 540.348 360.166 539.369 359.424 540.074C353.664 545.548 347.498 551.245 339.74 552.967C336.269 553.737 332.673 553.656 329.119 553.572L302.923 552.947ZM290.689 458.671C292.046 458.203 293.043 460.428 292.104 461.513C291.165 462.598 289.444 462.542 288.098 462.044C287.352 461.768 286.613 461.357 286.189 460.684C285.545 459.659 285.885 458.142 286.905 457.49C287.925 456.838 289.445 457.167 290.104 458.183L290.689 458.671ZM325.597 518.043L324.107 515.699C316.316 522.215 310.739 531.331 308.482 541.233C308.133 542.766 307.996 544.681 309.271 545.599C310.819 544.529 311.318 542.532 311.777 540.691L311.838 540.449C314.007 531.816 318.879 523.882 325.597 518.043ZM275.671 454.534C274.519 453.706 274.912 451.549 276.282 451.18C277.652 450.811 279.075 452.479 278.495 453.774C277.971 454.942 276.492 455.26 275.223 455.428L275.671 454.534ZM278.136 589.638C277.375 588.044 274.872 587.272 273.839 588.705C275.301 589.163 275.18 590.807 275.052 592.532C274.934 594.138 274.811 595.813 275.955 596.664C276.206 596.85 276.495 596.971 276.785 597.091C277.083 597.215 277.381 597.339 277.635 597.534C278.138 597.919 278.332 598.835 277.764 599.112C274.749 600.855 270.307 599.002 269.424 595.633C269.359 595.388 269.309 595.135 269.259 594.88L269.259 594.88C269.106 594.109 268.953 593.334 268.408 592.794C267.683 592.076 265.998 592.597 266.326 593.564C266.594 596.535 267.123 599.946 269.675 601.49C271.657 602.69 274.174 602.308 276.452 601.886L285.984 600.123C285.237 596.689 281.512 594.201 278.054 594.826C278.483 593.112 278.897 591.233 278.136 589.638ZM316.034 545.945C318.429 537.695 323.34 530.194 329.945 524.701C330.378 524.341 330.848 523.976 331.405 523.9C332.116 523.803 332.863 524.262 333.098 524.939C327.936 529.901 323.699 535.823 320.668 542.311C319.749 544.279 318.067 546.711 316.034 545.945ZM295.322 525.018L300.3 500.406C298.615 500.276 297.552 502.146 296.988 503.74C294.292 511.353 292.956 519.446 293.063 527.522C294.287 527.863 295.07 526.263 295.322 525.018ZM327.024 545.909C325.443 544.747 326.454 542.246 327.658 540.696C331.476 535.787 336.168 531.561 341.447 528.275C342.603 528.699 341.904 530.448 341.051 531.335L327.024 545.909ZM344.159 541.538C343.477 539.776 340.817 540.681 339.334 541.851L333.712 546.286C333.871 547.002 334.27 547.662 334.829 548.135C338.393 546.696 341.614 544.418 344.159 541.538ZM328.836 488.3C327.658 487.693 326.007 488.755 326.071 490.078C326.135 491.402 327.88 492.3 328.994 491.583C330.108 490.866 330.014 488.906 328.836 488.3ZM333.557 487.819C334.953 487.123 335.838 485.517 335.678 483.965L335.843 483.919C334.82 483.212 333.228 483.565 332.599 484.638C331.971 485.71 332.441 487.272 333.557 487.819ZM362.496 507.503C362.116 508.11 361.699 508.695 361.248 509.251C360.971 509.592 360.633 509.949 360.194 509.975C359.664 510.006 359.247 509.549 358.916 509.134C357.763 507.684 356.578 506.173 356.139 504.374C355.699 502.575 356.224 500.398 357.837 499.488C357.954 500.665 359.125 500.993 360.369 501.342C361.235 501.585 362.135 501.837 362.743 502.392C364.113 503.644 363.479 505.928 362.496 507.503ZM321.093 485.069C321.929 483.876 324.078 484.065 324.693 485.385C325.308 486.705 324.07 488.472 322.619 488.345C321.168 488.217 320.257 486.262 321.093 485.069Z" fill="#00160A"/>
<path fill-rule="evenodd" clip-rule="evenodd" d="M511.764 477.913C514.865 477.571 517.777 479.989 518.875 482.909C519.973 485.829 519.61 489.096 518.864 492.125C518.006 495.614 516.662 498.983 514.883 502.104C514.048 503.568 512.871 505.131 511.189 505.234C508.884 505.375 507.465 502.788 506.822 500.57C505.768 496.929 505.199 493.148 505.136 489.358C505.095 486.932 505.277 484.436 506.305 482.238C507.333 480.04 509.352 478.18 511.764 477.913Z" fill="#FFB61D"/>
<path fill-rule="evenodd" clip-rule="evenodd" d="M354.562 172.126C353.267 174.547 351.738 177.651 353.471 179.781C356.61 176.866 359.727 173.923 362.688 170.828C366.644 166.692 370.372 162.199 372.598 156.927C374.823 151.655 375.402 145.471 373.072 140.244C371.821 137.436 368.724 134.725 365.966 136.082C364.223 136.939 363.527 139.024 363.06 140.91C362.295 144.006 361.685 147.159 361.077 150.311C359.619 157.856 358.163 165.395 354.562 172.126ZM369.812 155.831C367.594 161.051 363.819 165.43 360.103 169.715C359.544 170.359 358.839 171.065 357.991 170.962C361.012 164.457 363.088 157.515 364.135 150.419C364.204 149.953 364.27 149.484 364.335 149.013C364.79 145.741 365.252 142.411 366.995 139.636C367.377 139.027 368.011 138.382 368.701 138.587C369.101 138.706 369.364 139.08 369.577 139.439C372.474 144.315 372.03 150.611 369.812 155.831ZM293.495 190.463C293.319 183.865 291.107 177.334 287.237 171.987C285.546 169.651 283.102 167.353 280.23 167.619C276.935 167.925 274.935 171.394 274.01 174.572C271.688 182.551 272.584 191.21 275.224 199.09C277.864 206.97 282.164 214.182 286.707 221.14C287.469 222.307 289.042 223.585 290.024 222.595C290.396 222.221 290.473 221.653 290.531 221.129L292.918 199.43C293.246 196.451 293.574 193.46 293.495 190.463ZM285.662 214.606C279.396 202.491 273.061 188.91 276.518 175.716C276.887 174.308 277.404 172.868 278.473 171.882C279.543 170.896 281.307 170.53 282.461 171.416C288.785 176.277 290.64 185.071 290.34 193.042C290.22 196.242 289.828 199.432 289.435 202.618C288.851 207.369 288.267 212.114 288.587 216.878C287.285 217.176 286.275 215.791 285.662 214.606ZM336.255 192.734C335.458 190.679 334.121 188.768 332.218 187.656C329.316 185.959 325.507 186.413 322.617 188.131C319.728 189.849 317.636 192.647 316.002 195.585C308.185 209.638 309.833 227.545 317.001 241.94C317.344 242.63 317.749 243.362 318.451 243.678C319.154 243.994 320.197 243.59 320.198 242.82C320.207 237.189 321.508 231.565 323.974 226.503C325.465 223.441 327.36 220.608 329.257 217.774C330.823 215.434 332.389 213.092 333.729 210.62C336.692 205.154 338.502 198.531 336.255 192.734ZM318.195 197.679C320.252 193.418 324.135 188.948 328.778 189.859C332.036 190.498 334.278 193.792 334.613 197.095C334.949 200.399 333.749 203.669 332.247 206.63C330.774 209.533 328.998 212.266 327.222 214.999L327.222 214.999L327.222 214.999L327.222 214.999L327.222 214.999C325.521 217.617 323.819 220.236 322.384 223.005C320.154 227.306 318.585 231.947 317.747 236.718C312.183 224.484 312.351 209.782 318.195 197.679ZM259.532 233.393C261.402 231.683 264.273 231.409 266.684 232.188C269.094 232.968 271.11 234.65 272.853 236.489C281.383 245.485 284.366 258.242 287.018 270.353C287.184 271.11 286.553 272.322 286.061 271.722C282.746 267.68 278.408 264.717 274.065 261.751C272.222 260.492 270.378 259.233 268.611 257.89C262.682 253.385 257.207 247.056 257.23 239.61C257.237 237.335 257.853 234.928 259.532 233.393ZM261.402 235.826C260.229 236.975 260.045 238.8 260.214 240.433C260.886 246.93 265.817 252.148 270.981 256.147C274.482 258.858 278.219 261.265 282.136 263.333C280.885 253.928 276.588 244.953 270.047 238.08C267.751 235.668 263.781 233.495 261.402 235.826Z" fill="#FFB61D"/>
<path fill-rule="evenodd" clip-rule="evenodd" d="M546.62 484.89C548.863 485.356 550.063 487.793 550.651 490.008C552.523 497.068 551.412 504.87 547.642 511.127C547.429 511.481 547.194 511.843 546.837 512.051C545.609 512.767 544.3 511.242 543.747 509.932C541.445 504.479 540.386 498.505 540.672 492.593C540.761 490.743 541.003 488.831 541.971 487.251C542.939 485.672 544.806 484.514 546.62 484.89L546.62 484.89Z" fill="#FFB61D"/>
<path fill-rule="evenodd" clip-rule="evenodd" d="M575.583 480.724C577.924 485.771 578.595 491.576 577.469 497.025C577.096 498.827 576.271 500.855 574.493 501.326C571.98 501.99 570.058 499.143 569.057 496.744C567.013 491.846 565.114 486.436 566.585 481.337C567.265 478.979 569.227 476.554 571.656 476.905C573.542 477.178 574.781 478.994 575.583 480.724L575.583 480.724Z" fill="#FFB61D"/>
<path fill-rule="evenodd" clip-rule="evenodd" d="M515.326 431.921C516.222 438.392 515.352 445.099 512.835 451.128C512.177 452.704 511.093 454.454 509.387 454.524C507.185 454.616 506.031 451.94 505.77 449.752C505.103 444.167 506.206 438.384 508.881 433.436C509.581 432.142 510.476 430.828 511.848 430.299C513.221 429.77 515.125 430.464 515.326 431.921V431.921Z" fill="#FFB61D"/>
<path fill-rule="evenodd" clip-rule="evenodd" d="M487.582 503.455C489.076 509.538 486.171 516.435 480.776 519.616C479.693 520.254 478.214 519.696 477.459 518.691C476.704 517.686 476.513 516.372 476.445 515.117C476.19 510.475 477.297 505.766 479.594 501.723C480.278 500.52 481.184 499.288 482.527 498.953C484.967 498.346 486.983 501.013 487.582 503.455L487.582 503.455Z" fill="#FFB61D"/>
<path fill-rule="evenodd" clip-rule="evenodd" d="M481.959 474.971C480.305 470.872 480.247 466.152 481.799 462.014C482.304 460.669 483.073 459.286 484.396 458.729C487.13 457.578 489.818 460.639 490.642 463.488C491.751 467.326 491.477 471.549 489.88 475.211C489.158 476.869 487.879 478.593 486.072 478.651C484.11 478.713 482.693 476.791 481.959 474.971H481.959Z" fill="#FFB61D"/>
<path fill-rule="evenodd" clip-rule="evenodd" d="M538.067 467.443C538.605 468.763 539.115 470.153 539 471.574C538.886 472.995 537.971 474.45 536.574 474.735C534.64 475.129 533.036 473.262 532.081 471.534C530.788 469.194 529.779 466.697 529.085 464.115C528.67 462.576 528.377 460.891 529.003 459.425C529.629 457.958 531.517 456.944 532.882 457.768C533.504 458.144 533.89 458.802 534.242 459.438C535.672 462.029 536.95 464.703 538.067 467.443H538.067Z" fill="#FFB61D"/>
<path fill-rule="evenodd" clip-rule="evenodd" d="M685.159 434.278C682.018 438.731 678.183 442.912 673.217 445.157C668.251 447.401 661.969 447.348 657.748 443.9C654.357 454.042 641.047 459.41 631.569 454.458C630.462 462.758 623.767 470.017 615.585 471.792C607.402 473.567 598.302 469.733 593.855 462.639C591.541 458.947 586.692 457.971 582.006 457.027C576.738 455.966 571.675 454.947 570.654 450.155C569.619 455.341 564.825 459.532 559.547 459.865C554.269 460.199 548.986 456.643 547.307 451.628C541.566 454.314 534.448 451.476 530.32 446.666C526.193 441.856 524.389 435.526 522.812 429.387C510.657 382.076 505.272 333.12 505.515 284.274C504.302 290.205 496.041 292.306 490.776 289.316C485.512 286.326 482.867 280.239 481.322 274.385C480.072 269.652 473.943 268.02 469.157 269.049C466.929 269.529 464.804 270.383 462.68 271.237L462.68 271.237L462.68 271.237C460.243 272.217 457.808 273.196 455.224 273.605C445.859 275.086 436.418 268.125 433.472 259.113C430.526 250.101 433.284 239.888 438.999 232.322C444.714 224.757 453.044 219.545 461.741 215.768C472.961 210.895 485.099 208.145 497.324 207.707C500.296 207.6 503.882 207.27 505.204 204.605C510.347 206.986 516.037 207.625 521.706 208.262C523.257 208.437 524.806 208.611 526.342 208.82C543.075 211.103 559.164 217.942 572.419 228.406C581.89 235.883 589.8 245.04 597.713 254.202C605.101 262.755 612.491 271.311 621.159 278.508C633.454 288.716 648.071 296.006 662.603 303.253C683.087 313.469 703.403 323.601 716.808 341.704C723.488 350.725 728.002 361.338 729.866 372.406C731.615 382.795 730.774 394.288 724.281 402.583C717.787 410.878 704.433 414.17 696.398 407.357C694.675 417.007 690.808 426.268 685.159 434.278ZM499.092 226.96C503.356 222.713 506.256 217.118 507.27 211.186C497.735 209.014 487.79 211.214 478.354 213.784C467.82 216.653 457.141 220.135 448.647 226.995C440.153 233.855 434.189 244.807 436.044 255.566C436.788 259.884 439.893 264.672 444.248 264.189L442.058 266.946C442.438 267.809 443.389 268.386 444.33 268.324C448.361 267.766 451.949 264.747 453.188 260.87C453.364 260.32 453.499 259.748 453.635 259.176C453.966 257.781 454.297 256.388 455.211 255.313C456.501 253.798 459.628 253.838 459.927 255.804C460.121 257.078 459.065 258.233 458.078 259.312C456.962 260.531 455.934 261.655 456.901 262.744C461.234 259.875 465.463 256.848 469.576 253.672C472.134 251.696 474.926 248.523 473.42 245.663C472.38 243.689 473.788 240.886 475.994 240.543C478.199 240.2 480.393 242.442 480.002 244.639C482.372 243.018 484.796 241.344 486.43 238.984C488.064 236.623 488.759 233.389 487.405 230.857C486.336 228.857 487.514 226.015 489.685 225.358C491.856 224.701 494.412 226.413 494.631 228.671C496.228 227.651 495.609 225.18 494.626 223.559C493.643 221.939 492.447 219.93 493.435 218.312C494.881 215.942 498.515 217.672 500.556 219.555C501.064 217.554 500.735 215.354 499.666 213.588C499.616 211.734 502.49 210.978 503.803 212.289C505.116 213.599 504.953 215.835 504.078 217.471C503.505 218.544 502.692 219.455 501.879 220.367L501.878 220.367C501.452 220.844 501.025 221.323 500.633 221.825C499.49 223.286 498.601 225.171 499.092 226.96ZM656.498 418.528C661.291 418.789 662.218 425.524 661.19 430.213C660.162 434.901 659.315 441.132 663.607 443.282C666.159 444.56 669.25 443.488 671.728 442.073C683.405 435.407 689.585 422.091 693.056 409.101C693.461 407.586 693.673 405.613 692.341 404.785C678.287 396.047 668.356 380.958 665.89 364.593C669.298 365.25 670.537 369.355 671.487 372.693C674.994 385.016 683.583 395.81 694.804 401.997C696.315 377.3 687.803 352.134 671.61 333.425C676.876 334.43 680.535 339.15 683.309 343.738C694.05 361.5 699.165 382.608 697.745 403.317C701.605 408.893 710.238 409.512 715.986 405.913C721.735 402.315 724.904 395.643 726.23 388.992C729.729 371.448 722.127 353.105 710.17 339.798C698.214 326.491 682.341 317.414 666.453 309.192C664.313 308.085 662.165 306.987 660.016 305.889C646.202 298.829 632.331 291.739 620.331 281.958C611.29 274.588 603.519 265.856 595.746 257.122L595.746 257.122C588.27 248.722 580.793 240.32 572.184 233.128C556.978 220.424 538.108 211.72 518.346 210.281C515.035 210.04 511.207 210.219 509.128 212.807C507.048 215.394 509.506 220.538 512.552 219.218L500.655 228.22C503.489 228.712 505.292 232.286 504.003 234.857C502.714 237.429 498.771 238.123 496.681 236.146C499.086 235.587 501.159 233.768 502.027 231.457C495.584 233.411 489.946 237.894 486.592 243.731C489.255 243.315 492.068 245.282 492.592 247.926C490.653 248.369 488.538 248.638 486.413 248.907C480.031 249.717 473.555 250.539 471.487 256.14C474.301 256.206 476.979 258.144 477.921 260.796C471.87 259.311 465.203 260.552 460.092 264.115C463.014 265.51 466.386 265.59 469.724 265.669C473.761 265.764 477.748 265.859 480.828 268.277C483.595 270.45 484.758 273.839 485.926 277.247C486.454 278.788 486.984 280.332 487.663 281.769C489.847 286.387 496.373 290.122 499.741 286.282C500.295 285.651 500.694 284.868 501.088 284.094C501.723 282.848 502.347 281.624 503.589 281.088C507.135 279.56 509.301 285.06 509.284 288.921C509.086 336.179 514.623 383.458 525.735 429.392C526.981 434.545 528.382 439.856 531.699 443.993C535.017 448.129 540.791 450.776 545.741 448.876C540.305 441.242 538.898 430.899 542.1 422.091C542.037 430.085 543.883 438.088 547.441 445.247L545.483 423.453C550.254 426.871 550.075 433.352 549.898 439.786C549.716 446.355 549.536 452.874 554.625 456.037C559.632 459.15 567.343 454.801 567.23 448.906C567.174 446.011 565.63 443.348 564.111 440.728C562.273 437.558 560.471 434.45 561.385 431.068L569.477 443.107L567.401 422.287C571.326 427.29 572.942 434.032 571.712 440.271C570.77 445.047 572.77 450.281 576.658 453.212C580.545 456.142 586.127 456.625 590.46 454.406C585.434 445.604 582.892 435.403 583.198 425.273L593.799 454.108C599.209 447.486 601.026 438.097 598.478 429.935C605.05 437.585 602.812 451.01 594.114 456.115C596.115 462.45 601.869 467.439 608.424 468.522C614.979 469.604 622.032 466.73 625.963 461.373C628.502 457.913 629.597 452.743 626.807 449.482C616.771 437.752 612.248 421.495 614.782 406.267C617.332 420.333 620.1 434.927 628.496 446.497L623.486 426.597C627.875 428.873 628.777 434.03 629.689 439.249C630.554 444.193 631.428 449.193 635.288 451.848C641.893 456.393 650.67 449.85 654.62 442.873C645.352 423.542 637.152 403.699 630.069 383.465C637.558 390.962 640.879 401.205 644.211 411.479C647.311 421.039 650.421 430.626 656.904 438.054C658.81 431.717 658.666 424.781 656.498 418.528ZM461.745 267.898C457.602 266.41 452.714 267.219 449.272 269.962C453.457 271.172 458.172 270.391 461.745 267.898ZM491.662 228.423C490.634 227.751 489.011 228.572 488.943 229.799C488.875 231.025 490.398 232.021 491.494 231.466C492.59 230.912 492.691 229.095 491.662 228.423ZM476.309 246.558C477.437 246.229 478.116 244.833 477.677 243.742C477.121 243.282 476.197 243.719 475.946 244.396C475.695 245.073 475.926 245.831 476.235 246.484L476.309 246.558ZM507.456 221.393C508.238 221.149 508.637 220.1 508.216 219.398C507.291 219.038 506.984 220.659 507.434 221.543L507.456 221.393ZM485.283 343.266C475.658 340.186 467.48 332.85 463.378 323.614C462.575 321.807 460.332 320.947 458.244 320.147C455.769 319.198 453.513 318.334 454.139 316.074C455.728 310.333 454.09 304.384 452.484 298.549C452.16 297.37 451.836 296.195 451.541 295.028C449.786 288.086 449.438 279.673 454.748 274.868C452.693 282.703 453.01 291.144 455.646 298.802C455.814 299.29 455.99 299.787 456.168 300.291C458.023 305.541 460.137 311.526 456.558 315.538C457.042 317.82 460.304 318.463 462.279 317.221C464.253 315.979 465.212 313.654 466.052 311.478C464.093 324.407 473.896 337.979 486.785 340.184C494.568 341.515 501.541 346.905 504.791 354.101C508.041 361.298 507.473 370.092 503.325 376.812C508.304 378.967 511.428 384.225 512.277 389.583C513.126 394.942 512.025 400.416 510.542 405.634C502.816 432.818 484.128 456.715 459.609 470.767C455.252 473.265 452.898 477.999 450.566 482.692C448.016 487.821 445.491 492.901 440.401 494.957C437.309 496.205 432.561 494.843 432.777 491.515C430.667 493.204 428.28 494.96 425.581 494.826C422.881 494.691 420.376 491.479 421.934 489.27C418.41 490.792 413.562 491.986 411.353 488.847C409.137 485.696 412.076 481.35 415.448 479.487C416.429 478.945 417.474 478.479 418.518 478.013L418.518 478.013C421.063 476.877 423.603 475.744 425.196 473.524C421.951 473.204 418.383 472.727 416.221 470.286C414.059 467.845 414.983 462.874 418.239 462.703C429.212 462.126 439.932 457.557 447.946 450.039C457.121 441.433 462.344 429.731 467.519 418.139C468.657 415.589 469.793 413.045 470.967 410.54C477.484 396.646 486.771 382.46 501.382 377.767C502.569 372.272 503.763 366.672 503.229 361.076C502.695 355.48 500.148 349.787 495.362 346.839C493.157 345.48 490.645 344.787 488.133 344.094C487.177 343.83 486.222 343.566 485.283 343.266ZM461.307 465.999C485.391 451.272 503.009 426.351 508.86 398.733C509.712 394.714 510.294 390.374 508.624 386.62C506.954 382.867 502.217 380.216 498.598 382.16C485.953 388.952 478.388 402.304 472.4 415.349C471.643 416.997 470.896 418.659 470.148 420.324L470.147 420.326C464.972 431.837 459.721 443.517 450.671 452.197C442.075 460.442 430.352 465.345 418.446 465.677C417.253 466.362 418.171 468.363 419.495 468.734C420.218 468.937 420.971 468.891 421.727 468.844C422.356 468.806 422.985 468.767 423.601 468.871C427.345 469.503 428.148 475.121 425.704 478.028C423.261 480.935 419.197 481.759 415.455 482.406C412.985 482.832 414.021 487.15 416.486 487.599C418.618 487.987 420.601 486.768 422.493 485.605C422.788 485.423 423.082 485.243 423.374 485.07C425.529 483.792 428.602 482.998 430.301 484.839C427.104 486.44 424.898 489.859 424.758 493.432C428.795 489.211 434.61 486.748 440.451 486.784L435.763 492.586C442.284 491.225 447.688 485.578 448.761 479.004C449.731 473.062 455.575 469.497 460.763 466.331C460.945 466.22 461.127 466.109 461.307 465.999ZM477.317 532.493C472.767 535.046 466.133 537.662 463.192 533.353C461.821 531.344 462.101 528.68 462.437 526.271L471.027 464.596C472.787 482.281 471.196 500.294 466.365 517.398C464.89 522.623 463.206 528.595 466.14 533.164C479.254 525.818 493.858 521.143 508.8 519.508C519.557 518.331 530.52 518.696 541.448 519.059H541.449C559.043 519.645 576.547 520.227 592.955 514.367C596.941 512.944 600.951 511.035 603.555 507.699C606.159 504.363 606.924 499.273 604.311 495.944L579.142 463.888C577.953 462.374 576.954 459.773 578.667 458.895L601.868 486.509C606.762 492.334 611.959 500.004 608.803 506.927C607.172 510.505 603.641 512.811 600.121 514.564C582.399 523.393 562.425 522.73 542.278 522.061C526.975 521.553 511.573 521.042 496.981 524.684C490.118 526.397 483.486 529.031 477.317 532.493ZM507.725 598.275L506.5 601.047C507.936 604.046 511.984 604.447 515.307 604.304C522.332 604.001 529.332 603.136 536.219 601.72C542.013 600.529 548.6 598.155 550.361 592.508C551.397 589.19 550.422 585.674 549.481 582.281L549.481 582.279C549.365 581.861 549.25 581.446 549.139 581.032C546.86 572.544 546.413 563.568 547.836 554.895C548.414 551.373 549.297 547.882 550.179 544.397L550.179 544.397L550.179 544.397L550.179 544.396L550.179 544.396C551.845 537.809 553.506 531.241 553.097 524.507C544.332 543.418 542.022 565.252 546.635 585.579L546.688 585.81C547.183 587.985 547.704 590.276 546.978 592.375C545.798 595.788 541.894 597.307 538.402 598.224C531.85 599.947 523.879 600.659 519.247 595.716C518.926 595.374 518.623 594.999 518.476 594.554C517.839 592.626 520.211 591.208 522.016 590.277C528.905 586.722 532.744 578.883 533.53 571.17C534.316 563.458 532.532 555.74 530.732 548.199L530.722 548.157C528.925 540.63 527.092 532.949 527.761 525.24C527.875 523.929 525.709 523.554 524.874 524.571C524.039 525.588 524.205 527.067 524.414 528.366L530.842 568.174C531.62 572.996 529.67 577.952 526.599 581.75C523.528 585.548 519.426 588.36 515.29 590.958C513.178 592.285 510.91 593.611 508.417 593.658C505.923 593.706 503.219 591.969 503.116 589.477C510.282 587.513 515.09 580.405 516.541 573.118C517.993 565.831 516.721 558.309 515.448 550.988L511.859 530.353C511.344 527.388 509.682 523.568 506.729 524.149C510.559 536.841 512.921 549.975 513.754 563.206C514.088 568.526 514.096 574.189 511.361 578.765C508.857 582.953 504.446 585.571 500.166 587.915C498.258 588.96 496.265 590.052 495.046 591.854C493.827 593.655 493.693 596.397 495.355 597.799C497.012 599.196 499.277 598.637 501.551 598.076C503.791 597.523 506.039 596.969 507.725 598.275ZM518.843 599.004C520.214 599.467 521.568 599.926 521.857 601.243C518.375 601.692 514.834 601.681 511.355 601.21C509.765 600.995 509.212 598.743 510.036 597.368C510.861 595.992 512.462 595.321 513.956 594.738C514.807 596.133 515.727 597.593 517.176 598.348C517.682 598.611 518.264 598.808 518.843 599.004ZM498.49 592.964C499.671 592.151 501.438 592.346 502.414 593.397L502.696 593.153C503.139 593.781 503.108 594.704 502.623 595.3C500.807 594.985 498.859 595.548 497.491 596.783C496.858 595.496 497.308 593.777 498.49 592.964ZM473.954 293.024C470.443 290.722 466.999 291.816 464.196 295.874C463.73 296.55 463.899 297.475 464.575 297.941C465.25 298.408 466.176 298.238 466.642 297.563C468.601 294.726 470.304 294.185 472.325 295.51C473.011 295.959 473.932 295.768 474.382 295.081C474.832 294.395 474.641 293.474 473.954 293.024ZM461.33 282.733C460.074 282.17 460.923 280.217 462.052 279.429C464.237 277.907 466.909 277.293 469.507 276.712C472.574 276.025 476.254 275.505 478.445 277.758C473.272 279.517 468.058 281.153 462.808 282.664C462.324 282.804 461.79 282.939 461.33 282.733ZM485.102 313.04C485.682 312.276 486.202 311.737 486.855 311.326C488.295 310.419 490.074 310.487 491.403 311.696C496.281 316.132 494.727 322.609 489.501 327.541C484.649 332.121 478.086 334.142 473.844 331.008C470.596 328.609 471.079 325.323 474.104 323.387L474.189 323.334C475.022 322.828 477.694 321.485 477.66 321.504L477.945 321.349C478.774 320.888 479.379 320.475 479.817 320.062C480.492 319.427 481.148 318.679 481.817 317.798C482.33 317.123 483.484 315.409 484.233 314.296C484.575 313.787 484.833 313.404 484.906 313.304L485.102 313.04ZM475.61 328.618C481.57 333.021 496.654 320.489 489.404 313.895C488.549 313.118 487.595 314.568 486.205 316.681C485.092 318.373 483.699 320.49 481.855 322.226C480.673 323.339 479.055 324.146 477.647 324.848C475.198 326.07 473.385 326.974 475.61 328.618Z" fill="#00160A"/>
</svg>
