<?xml version="1.0" encoding="UTF-8"?>
<svg width="849px" height="849px" viewBox="0 0 849 849" version="1.1" xmlns="http://www.w3.org/2000/svg" xmlns:xlink="http://www.w3.org/1999/xlink">
    <!-- Generator: Sketch 52.6 (67491) - http://www.bohemiancoding.com/sketch -->
    <title>Logo Vector</title>
    <desc>Created with Sketch.</desc>
    <g id="Logo-Vector" stroke="none" stroke-width="1" fill="none" fill-rule="evenodd">
        <path d="M788.38365,459.30729 C788.277406,459.054542 788.217107,458.778165 788.213079,458.48816 C788.204833,457.910433 788.431494,457.353439 788.842598,456.94119 C789.178906,456.603945 789.615807,456.386469 790.084872,456.317195 C790.211425,456.295211 790.341598,456.283751 790.474407,456.283751 C791.673128,456.283751 792.657172,457.217359 792.701776,458.39696 L792.701776,458.54896 C792.702595,459.130799 792.468451,459.689083 792.050939,460.10079 C791.633427,460.512498 791.066811,460.743841 790.47595,460.74384 C789.515631,460.74384 788.697158,460.145798 788.38365,459.30729 Z M681.663159,456.291832 C682.454514,456.285248 683.192255,456.692969 683.598063,457.365703 C684.014852,458.056641 684.014852,458.916639 683.598063,459.607577 C683.2894,460.119268 682.788702,460.47764 682.218441,460.616998 C681.98111,460.700166 681.72896,460.74384 681.472232,460.74384 C680.241238,460.74384 679.24332,459.761159 679.24332,458.54896 L679.24332,458.39696 C679.287924,457.217359 680.271967,456.283751 681.470689,456.283751 C681.535511,456.283751 681.599706,456.286481 681.663159,456.291832 Z M788.336584,344.191037 C788.259384,343.971412 788.216142,343.736068 788.213079,343.49104 C788.204828,342.913594 788.431586,342.356911 788.84278,341.945142 C789.253973,341.533373 789.815404,341.300767 790.401859,341.2992 L790.47595,341.2992 C790.792864,341.31082 791.092292,341.387189 791.361307,341.515092 C791.613806,341.620174 791.846526,341.771903 792.045818,341.964886 C792.463972,342.369801 792.700184,342.922659 792.701776,343.50016 L792.701776,343.57312 C792.702595,344.154959 792.468451,344.713243 792.050939,345.12495 C791.633427,345.536658 791.066811,345.768001 790.47595,345.768 C789.462837,345.768 788.607595,345.102396 788.336584,344.191037 Z M680.042784,341.871577 C680.44643,341.505055 680.976181,341.29991 681.527801,341.2992 L681.598805,341.2992 C682.414345,341.269297 683.181274,341.680685 683.598063,342.371623 C684.014852,343.062561 684.014852,343.922559 683.598063,344.613497 C683.319618,345.075092 682.8849,345.411919 682.383815,345.575752 C682.099837,345.701286 681.78953,345.768 681.472232,345.768 C680.241238,345.768 679.24332,344.785319 679.24332,343.57312 C679.24231,342.891703 679.552631,342.280701 680.042784,341.871577 Z M790.431389,552.65173 C791.624076,552.602295 792.566357,551.635601 792.566357,550.4588 C792.566357,549.278381 791.618273,548.309363 790.420382,548.26544 L790.34629,548.26544 C790.185474,548.26587 790.026539,548.283673 789.872068,548.317779 C790.063942,548.262601 790.266453,548.231778 790.47595,548.22896 C791.06235,548.220835 791.627665,548.444131 792.045818,548.849046 C792.463972,549.253961 792.700184,549.806819 792.701776,550.38432 L792.701776,550.45728 C792.702595,551.039119 792.468451,551.597403 792.050939,552.00911 C791.633427,552.420818 791.066811,552.652161 790.47595,552.65216 C790.461062,552.65216 790.446208,552.652016 790.431389,552.65173 Z M681.952445,552.60055 C681.821169,552.629484 681.685431,552.647059 681.546324,552.65216 C681.532664,552.652198 681.519033,552.652117 681.50543,552.651917 C681.494373,552.652079 681.483307,552.65216 681.472232,552.65216 C680.241238,552.65216 679.24332,551.669479 679.24332,550.45728 C679.241514,549.238883 680.235057,548.245603 681.472232,548.22896 C682.058632,548.220835 682.623947,548.444131 683.0421,548.849046 C683.460254,549.253961 683.696466,549.806819 683.698058,550.38432 L683.698058,550.45728 C683.698878,551.039119 683.464733,551.597403 683.047221,552.00911 C682.744733,552.307393 682.36398,552.511002 681.952445,552.60055 Z M633.583729,459.344118 C633.467348,459.081503 633.400891,458.792344 633.396249,458.48816 C633.388003,457.910433 633.614665,457.353439 634.025768,456.94119 C634.366758,456.59925 634.811163,456.380436 635.287653,456.314388 C635.409004,456.294236 635.533628,456.283751 635.660664,456.283751 C635.750857,456.283751 635.839834,456.289036 635.927288,456.299314 C636.639879,456.357708 637.287645,456.751115 637.658378,457.365703 C638.075168,458.056641 638.075168,458.916639 637.658378,459.607577 C637.50114,459.86824 637.294069,460.089117 637.053354,460.261522 C636.671586,460.563296 636.186764,460.74384 635.65912,460.74384 C635.068259,460.743841 634.501644,460.512498 634.084131,460.10079 C633.863673,459.883397 633.69434,459.625136 633.583729,459.344118 Z M526.849416,456.291832 C527.640771,456.285248 528.378512,456.692969 528.78432,457.365703 C529.20111,458.056641 529.20111,458.916639 528.78432,459.607577 C528.475213,460.120003 527.97352,460.478669 527.40224,460.617597 C527.168762,460.69934 526.91736,460.74384 526.655402,460.74384 C526.064542,460.743841 525.497926,460.512498 525.080414,460.10079 C524.662901,459.689083 524.428757,459.130799 524.429577,458.54896 L524.429577,458.39696 C524.474181,457.217359 525.458224,456.283751 526.656946,456.283751 C526.721769,456.283751 526.785964,456.286481 526.849416,456.291832 Z M633.533864,344.227579 C633.448145,343.997608 633.399838,343.749733 633.396249,343.49104 C633.387998,342.913594 633.614756,342.356911 634.02595,341.945142 C634.437143,341.533373 634.998574,341.300767 635.585029,341.2992 L635.65912,341.2992 C636.47466,341.269297 637.241589,341.680685 637.658378,342.371623 C638.075168,343.062561 638.075168,343.922559 637.658378,344.613497 C637.549298,344.794326 637.416236,344.956007 637.264596,345.095641 C636.859141,345.510133 636.289712,345.768 635.65912,345.768 C635.068259,345.768001 634.501644,345.536658 634.084131,345.12495 C633.827343,344.871733 633.63992,344.563068 633.533864,344.227579 Z M525.214934,341.883406 C525.61984,341.51018 526.15415,341.300696 526.710971,341.2992 L526.785062,341.2992 C527.600602,341.269297 528.367531,341.680685 528.78432,342.371623 C529.20111,343.062561 529.20111,343.922559 528.78432,344.613497 C528.505112,345.076357 528.068773,345.413765 527.56595,345.577095 C527.287945,345.699772 526.979765,345.768 526.655402,345.768 C526.064542,345.768001 525.497926,345.536658 525.080414,345.12495 C524.662901,344.713243 524.428757,344.154959 524.429577,343.57312 C524.428563,342.898303 524.732903,342.292463 525.214934,341.883406 Z M635.616812,552.651765 C636.809893,552.602746 637.752615,551.635875 637.752615,550.4588 C637.752615,549.278381 636.80453,548.309363 635.606639,548.26544 L635.532548,548.26544 C635.374977,548.265643 635.219191,548.282527 635.067619,548.315088 C635.255784,548.261845 635.454091,548.231994 635.65912,548.22896 C636.246051,548.220015 636.812165,548.442947 637.230991,548.847951 C637.649816,549.252956 637.886452,549.806284 637.888033,550.38432 L637.888033,550.45728 C637.888033,551.669479 636.890115,552.65216 635.65912,552.65216 C635.645003,552.65216 635.630899,552.652028 635.616812,552.651765 Z M527.345948,548.327667 C527.917528,548.466468 528.419514,548.825221 528.728752,549.337863 C529.145541,550.028801 529.145541,550.888799 528.728752,551.579737 C528.311963,552.270675 527.545034,552.682063 526.729494,552.65216 C526.716494,552.652179 526.70352,552.652089 526.690571,552.651892 C526.67887,552.652071 526.667147,552.65216 526.655402,552.65216 C526.064542,552.652161 525.497926,552.420818 525.080414,552.00911 C524.662901,551.597403 524.428757,551.039119 524.429577,550.45728 C524.427749,549.24005 525.419437,548.24725 526.655402,548.22896 C526.89171,548.225359 527.124643,548.259344 527.345948,548.327667 Z M478.745397,459.286418 C478.644268,459.039374 478.586811,458.770227 478.582506,458.48816 C478.57426,457.910433 478.800922,457.353439 479.212026,456.94119 C479.548333,456.603945 479.985234,456.386469 480.454299,456.317195 C480.580852,456.295211 480.711025,456.283751 480.843834,456.283751 C482.042556,456.283751 483.026599,457.217359 483.071203,458.39696 L483.071203,458.54896 C483.072023,459.130799 482.837879,459.689083 482.420367,460.10079 C482.002854,460.512498 481.436239,460.743841 480.845378,460.74384 C479.877109,460.74384 479.053045,460.135856 478.745397,459.286418 Z M372.241064,456.319208 C373.30848,456.486431 374.117295,457.396362 374.117295,458.48664 C374.117295,459.000865 373.937375,459.474971 373.63526,459.849959 C373.569305,459.938336 373.496315,460.022232 373.416649,460.10079 C372.999137,460.512498 372.432521,460.743841 371.84166,460.74384 C370.610665,460.74384 369.612747,459.761159 369.612747,458.54896 L369.612747,458.39696 C369.657351,457.217359 370.641395,456.283751 371.840116,456.283751 C371.976921,456.283751 372.110929,456.295911 372.241064,456.319208 Z M478.701444,344.175465 C478.627399,343.960315 478.585826,343.730304 478.582506,343.49104 C478.574256,342.913594 478.801013,342.356911 479.212207,341.945142 C479.623401,341.533373 480.184831,341.300767 480.771286,341.2992 L480.845378,341.2992 C481.162291,341.31082 481.46172,341.387189 481.730734,341.515092 C481.983233,341.620174 482.215953,341.771903 482.415246,341.964886 C482.833399,342.369801 483.069612,342.922659 483.071203,343.50016 L483.071203,343.57312 C483.072023,344.154959 482.837879,344.713243 482.420367,345.12495 C482.002854,345.536658 481.436239,345.768001 480.845378,345.768 C479.826503,345.768 478.9673,345.094804 478.701444,344.175465 Z M370.412212,341.871577 C370.815858,341.505055 371.345608,341.29991 371.897228,341.2992 L371.97132,341.2992 C373.169211,341.343123 374.117295,342.312141 374.117295,343.49256 C374.117295,343.919546 373.993244,344.318871 373.77819,344.656757 C373.680433,344.82665 373.559234,344.984348 373.416649,345.12495 C372.999137,345.536658 372.432521,345.768001 371.84166,345.768 C370.610665,345.768 369.612747,344.785319 369.612747,343.57312 C369.611737,342.891703 369.922059,342.280701 370.412212,341.871577 Z M480.241495,548.317779 C480.43337,548.262601 480.635881,548.231778 480.845378,548.22896 C481.431777,548.220835 481.997092,548.444131 482.415246,548.849046 C482.599758,549.027717 482.748845,549.235193 482.857981,549.460881 C482.836438,549.419341 482.813467,549.378312 482.789067,549.337863 C482.372278,548.646925 481.605349,548.235537 480.789809,548.26544 L480.715718,548.26544 C480.554901,548.26587 480.395966,548.283673 480.241495,548.317779 Z M372.321872,552.60055 C372.190596,552.629484 372.054858,552.647059 371.915751,552.65216 C371.902092,552.652198 371.88846,552.652117 371.874857,552.651917 C371.8638,552.652079 371.852734,552.65216 371.84166,552.65216 C370.610665,552.65216 369.612747,551.669479 369.612747,550.45728 C369.610941,549.238883 370.604485,548.245603 371.84166,548.22896 C372.428059,548.220835 372.993374,548.444131 373.411528,548.849046 C373.829681,549.253961 374.065894,549.806819 374.067485,550.38432 L374.067485,550.45728 C374.068305,551.039119 373.834161,551.597403 373.416649,552.00911 C373.11416,552.307393 372.733407,552.511002 372.321872,552.60055 Z M323.956281,459.35115 C323.837967,459.086677 323.770359,458.795074 323.765676,458.48816 C323.757426,457.909908 323.984509,457.352451 324.396281,456.940112 C324.73707,456.598855 325.180903,456.380486 325.656705,456.31445 C325.778175,456.294258 325.902925,456.283751 326.030091,456.283751 C327.228813,456.283751 328.212857,457.217359 328.257461,458.39696 L328.257461,458.54896 C328.25828,459.130799 328.024136,459.689083 327.606624,460.10079 C327.189112,460.512498 326.622496,460.743841 326.031635,460.74384 C325.088145,460.74384 324.281573,460.166575 323.956281,459.35115 Z M217.218843,456.291832 C218.010199,456.285248 218.74794,456.692969 219.153748,457.365703 C219.570537,458.056641 219.570537,458.916639 219.153748,459.607577 C218.844641,460.120003 218.342947,460.478669 217.771667,460.617597 C217.53819,460.69934 217.286787,460.74384 217.02483,460.74384 C216.433969,460.743841 215.867353,460.512498 215.449841,460.10079 C215.032329,459.689083 214.798185,459.130799 214.799004,458.54896 L214.799004,458.39696 C214.843608,457.217359 215.827652,456.283751 217.026373,456.283751 C217.091196,456.283751 217.155391,456.286481 217.218843,456.291832 Z M323.904643,344.231212 C323.818081,344.000227 323.769284,343.751105 323.765676,343.49104 C323.75742,342.913068 323.984599,342.35592 324.396462,341.944063 C324.808325,341.532205 325.370552,341.299956 325.957544,341.2992 L326.031635,341.2992 C326.348548,341.31082 326.647977,341.387189 326.916992,341.515092 C327.16949,341.620174 327.40221,341.771903 327.601503,341.964886 C328.019656,342.369801 328.255869,342.922659 328.257461,343.50016 L328.257461,343.57312 C328.25828,344.154959 328.024136,344.713243 327.606624,345.12495 C327.189112,345.536658 326.622496,345.768001 326.031635,345.768 C325.033468,345.768 324.188549,345.12189 323.904643,344.231212 Z M215.59899,341.871097 C216.001777,341.505593 216.530069,341.300671 217.080398,341.2992 L217.15449,341.2992 C217.97003,341.269297 218.736958,341.680685 219.153748,342.371623 C219.570537,343.062561 219.570537,343.922559 219.153748,344.613497 C218.87454,345.076357 218.4382,345.413765 217.935378,345.577095 C217.657373,345.699772 217.349193,345.768 217.02483,345.768 C216.433969,345.768001 215.867353,345.536658 215.449841,345.12495 C215.032329,344.713243 214.798185,344.154959 214.799004,343.57312 C214.79798,342.891501 215.108496,342.280257 215.59899,341.871097 Z M325.987073,552.65173 C327.17976,552.602295 328.122042,551.635601 328.122042,550.4588 C328.122042,549.278381 327.173958,548.309363 325.976066,548.26544 L325.901975,548.26544 C325.744604,548.265643 325.589013,548.282484 325.437623,548.314965 C325.626568,548.261553 325.825727,548.23173 326.031635,548.22896 C326.618034,548.220835 327.18335,548.444131 327.601503,548.849046 C328.019656,549.253961 328.255869,549.806819 328.257461,550.38432 L328.257461,550.45728 C328.25828,551.039119 328.024136,551.597403 327.606624,552.00911 C327.189112,552.420818 326.622496,552.652161 326.031635,552.65216 C326.016747,552.65216 326.001892,552.652016 325.987073,552.65173 Z M217.715375,548.327667 C218.286955,548.466468 218.788942,548.825221 219.098179,549.337863 C219.514969,550.028801 219.514969,550.888799 219.098179,551.579737 C218.68139,552.270675 217.914461,552.682063 217.098921,552.65216 C217.085922,552.652179 217.072947,552.652089 217.059999,552.651892 C217.048297,552.652071 217.036574,552.65216 217.02483,552.65216 C216.433969,552.652161 215.867353,552.420818 215.449841,552.00911 C215.032329,551.597403 214.798185,551.039119 214.799004,550.45728 C214.797176,549.24005 215.788864,548.24725 217.02483,548.22896 C217.261137,548.225359 217.494071,548.259344 217.715375,548.327667 Z M169.148675,459.344118 C169.032294,459.081503 168.965837,458.792344 168.961195,458.48816 C168.952949,457.910433 169.179611,457.353439 169.590714,456.94119 C169.931704,456.59925 170.376109,456.380436 170.852599,456.314388 C170.97395,456.294236 171.098575,456.283751 171.22561,456.283751 C171.315803,456.283751 171.40478,456.289036 171.492234,456.299314 C172.204825,456.357708 172.852591,456.751115 173.223324,457.365703 C173.640114,458.056641 173.640114,458.916639 173.223324,459.607577 C173.066086,459.86824 172.859015,460.089117 172.6183,460.261522 C172.236532,460.563296 171.75171,460.74384 171.224066,460.74384 C170.633205,460.743841 170.06659,460.512498 169.649077,460.10079 C169.428619,459.883397 169.259286,459.625136 169.148675,459.344118 Z M64.1861877,457.385359 C64.3774348,457.709463 64.4867226,458.085867 64.4867226,458.48664 C64.4867226,459.000865 64.306802,459.474971 64.0046878,459.849959 C63.9387325,459.938336 63.8657424,460.022232 63.7860761,460.10079 C63.3685639,460.512498 62.8019481,460.743841 62.2110871,460.74384 C61.6202262,460.743841 61.0536103,460.512498 60.6360982,460.10079 C60.218586,459.689083 59.9844419,459.130799 59.9852614,458.54896 L59.9852614,458.39696 C59.9852614,457.18644 60.9817975,456.20512 62.2110871,456.20512 C63.0698261,456.20512 63.8149828,456.683998 64.1861877,457.385359 Z M169.09881,344.227579 C169.013091,343.997608 168.964784,343.749733 168.961195,343.49104 C168.952945,342.913594 169.179702,342.356911 169.590896,341.945142 C170.00209,341.533373 170.56352,341.300767 171.149975,341.2992 L171.224066,341.2992 C172.039607,341.269297 172.806535,341.680685 173.223324,342.371623 C173.640114,343.062561 173.640114,343.922559 173.223324,344.613497 C173.114245,344.794326 172.981182,344.956007 172.829542,345.095641 C172.424087,345.510133 171.854658,345.768 171.224066,345.768 C170.633205,345.768001 170.06659,345.536658 169.649077,345.12495 C169.392289,344.871733 169.204866,344.563068 169.09881,344.227579 Z M60.7706184,341.883406 C61.1755244,341.51018 61.7098351,341.300696 62.2666556,341.2992 L62.3407469,341.2992 C63.5386383,341.343123 64.4867226,342.312141 64.4867226,343.49256 C64.4867226,343.919546 64.3626712,344.318871 64.1476176,344.656757 C64.04986,344.82665 63.9286611,344.984348 63.7860761,345.12495 C63.3685639,345.536658 62.8019481,345.768001 62.2110871,345.768 C61.6202262,345.768001 61.0536103,345.536658 60.6360982,345.12495 C60.218586,344.713243 59.9844419,344.154959 59.9852614,343.57312 C59.9842479,342.898303 60.2885875,342.292463 60.7706184,341.883406 Z M170.702136,548.299631 C170.869399,548.257977 171.044147,548.234663 171.224066,548.232 C171.810751,548.22388 172.376381,548.447081 172.795023,548.851907 C173.064592,549.112581 173.258807,549.434627 173.363585,549.785184 C173.313043,549.630842 173.24468,549.480738 173.158495,549.337863 C172.741705,548.646925 171.974777,548.235537 171.159237,548.26544 L171.085145,548.26544 C170.955811,548.265786 170.827693,548.277368 170.702136,548.299631 Z M62.6912995,552.60055 C62.5600235,552.629484 62.4242854,552.647059 62.2851784,552.65216 C62.2721065,552.652179 62.2590601,552.652089 62.24604,552.65189 C62.2343991,552.65207 62.2227479,552.65216 62.2110871,552.65216 C61.6202262,552.652161 61.0536103,552.420818 60.6360982,552.00911 C60.218586,551.597403 59.9844419,551.039119 59.9852614,550.45728 C59.9834332,549.24005 60.9751215,548.24725 62.2110871,548.22896 C62.7974867,548.220835 63.3628019,548.444131 63.7809552,548.849046 C64.1991085,549.253961 64.4353212,549.806819 64.4369129,550.38432 L64.4369129,550.45728 C64.4377324,551.039119 64.2035882,551.597403 63.7860761,552.00911 C63.4835878,552.307393 63.1028347,552.511002 62.6912995,552.60055 Z M62.2110871,529.7336 C60.9817975,529.7336 59.9852614,528.75228 59.9852614,527.54176 L59.9852614,527.38672 C59.9852614,526.1762 60.9817975,525.19488 62.2110871,525.19488 C63.4403767,525.19488 64.4369129,526.1762 64.4369129,527.38672 L64.4369129,527.54176 C64.4369129,528.75228 63.4403767,529.7336 62.2110871,529.7336 Z M62.2110871,506.736 C60.9817975,506.736 59.9852614,505.75468 59.9852614,504.54416 L59.9852614,504.38912 C59.9852614,503.1786 60.9817975,502.19728 62.2110871,502.19728 C63.4403767,502.19728 64.4369129,503.1786 64.4369129,504.38912 L64.4369129,504.54416 C64.4369129,505.75468 63.4403767,506.736 62.2110871,506.736 Z M62.2110871,483.7384 C60.9817975,483.7384 59.9852614,482.75708 59.9852614,481.54656 L59.9852614,481.39456 C59.9852614,480.18404 60.9817975,479.20272 62.2110871,479.20272 C63.4403767,479.20272 64.4369129,480.18404 64.4369129,481.39456 L64.4369129,481.54656 C64.4369129,482.75708 63.4403767,483.7384 62.2110871,483.7384 Z M62.2110871,437.74624 C61.6202262,437.746241 61.0536103,437.514898 60.6360982,437.10319 C60.218586,436.691483 59.9844419,436.133199 59.9852614,435.55136 L59.9852614,435.4024 C59.9852614,434.19188 60.9817975,433.21056 62.2110871,433.21056 C63.4403767,433.21056 64.4369129,434.19188 64.4369129,435.4024 L64.4369129,435.55136 C64.4377324,436.133199 64.2035882,436.691483 63.7860761,437.10319 C63.3685639,437.514898 62.8019481,437.746241 62.2110871,437.74624 Z M62.2110871,414.74864 C60.9817975,414.74864 59.9852614,413.76732 59.9852614,412.5568 L59.9852614,412.4048 C59.9852614,411.19428 60.9817975,410.21296 62.2110871,410.21296 C63.4403767,410.21296 64.4369129,411.19428 64.4369129,412.4048 L64.4369129,412.5568 C64.4369129,413.138112 64.2024069,413.695615 63.7849836,414.106665 C63.3675603,414.517715 62.8014128,414.74864 62.2110871,414.74864 Z M62.2110871,391.75104 C60.9817975,391.75104 59.9852614,390.76972 59.9852614,389.5592 L59.9852614,389.4072 C59.9852614,388.19668 60.9817975,387.21536 62.2110871,387.21536 C63.4403767,387.21536 64.4369129,388.19668 64.4369129,389.4072 L64.4369129,389.5592 C64.4369129,390.140512 64.2024069,390.698015 63.7849836,391.109065 C63.3675603,391.520115 62.8014128,391.75104 62.2110871,391.75104 Z M62.2110871,368.75648 C61.6202262,368.756481 61.0536103,368.525138 60.6360982,368.11343 C60.218586,367.701723 59.9844419,367.143439 59.9852614,366.5616 L59.9852614,366.4096 C59.9852614,365.19908 60.9817975,364.21776 62.2110871,364.21776 C63.4403767,364.21776 64.4369129,365.19908 64.4369129,366.4096 L64.4369129,366.5616 C64.4377324,367.143439 64.2035882,367.701723 63.7860761,368.11343 C63.3685639,368.525138 62.8019481,368.756481 62.2110871,368.75648 Z M171.224066,529.7336 C169.994777,529.7336 168.998241,528.75228 168.998241,527.54176 L168.998241,527.38672 C169.042845,526.207119 170.026888,525.273511 171.22561,525.273511 C172.424332,525.273511 173.408375,526.207119 173.452979,527.38672 L173.452979,527.54176 C173.451276,528.752771 172.453856,529.733601 171.224066,529.7336 Z M171.224066,506.736 C169.994777,506.736 168.998241,505.75468 168.998241,504.54416 L168.998241,504.38912 C169.042845,503.209519 170.026888,502.275911 171.22561,502.275911 C172.424332,502.275911 173.408375,503.209519 173.452979,504.38912 L173.452979,504.54416 C173.451276,505.755171 172.453856,506.736001 171.224066,506.736 Z M171.224066,483.7384 C169.994777,483.7384 168.998241,482.75708 168.998241,481.54656 L168.998241,481.39456 C169.042845,480.214959 170.026888,479.281351 171.22561,479.281351 C172.424332,479.281351 173.408375,480.214959 173.452979,481.39456 L173.452979,481.54656 C173.451276,482.757571 172.453856,483.738401 171.224066,483.7384 Z M171.224066,437.74624 C170.633205,437.746241 170.06659,437.514898 169.649077,437.10319 C169.231565,436.691483 168.997421,436.133199 168.998241,435.55136 L168.998241,435.4024 C168.967874,434.599312 169.385641,433.844094 170.087292,433.433668 C170.788944,433.023243 171.662276,433.023243 172.363927,433.433668 C173.065579,433.844094 173.483346,434.599312 173.452979,435.4024 L173.452979,435.55136 C173.452979,436.763559 172.455061,437.74624 171.224066,437.74624 Z M171.224066,414.74864 C169.994777,414.74864 168.998241,413.76732 168.998241,412.5568 L168.998241,412.4048 C168.967874,411.601712 169.385641,410.846494 170.087292,410.436068 C170.788944,410.025643 171.662276,410.025643 172.363927,410.436068 C173.065579,410.846494 173.483346,411.601712 173.452979,412.4048 L173.452979,412.5568 C173.451276,413.767811 172.453856,414.748641 171.224066,414.74864 Z M171.224066,391.75104 C169.994777,391.75104 168.998241,390.76972 168.998241,389.5592 L168.998241,389.4072 C169.042845,388.227599 170.026888,387.293991 171.22561,387.293991 C172.424332,387.293991 173.408375,388.227599 173.452979,389.4072 L173.452979,389.5592 C173.451276,390.770211 172.453856,391.751041 171.224066,391.75104 Z M171.224066,368.75648 C170.633205,368.756481 170.06659,368.525138 169.649077,368.11343 C169.231565,367.701723 168.997421,367.143439 168.998241,366.5616 L168.998241,366.4096 C169.042845,365.229999 170.026888,364.296391 171.22561,364.296391 C172.424332,364.296391 173.408375,365.229999 173.452979,366.4096 L173.452979,366.5616 C173.452979,367.773799 172.455061,368.75648 171.224066,368.75648 Z M149.441228,552.65216 C148.196264,552.657562 147.174856,551.682802 147.141311,550.45728 C147.123775,549.881921 147.343685,549.324109 147.750867,548.911116 C148.158048,548.498122 148.717764,548.265181 149.302307,548.26544 L149.447402,548.26544 C150.645294,548.309363 151.593378,549.278381 151.593378,550.4588 C151.593378,551.639219 150.645294,552.608237 149.447402,552.65216 L149.441228,552.65216 Z M127.652216,552.65216 C126.407252,552.657562 125.385844,551.682802 125.352299,550.45728 C125.334762,549.881921 125.554673,549.324109 125.961854,548.911116 C126.369036,548.498122 126.928751,548.265181 127.513295,548.26544 L127.65839,548.26544 C128.856281,548.309363 129.804366,549.278381 129.804366,550.4588 C129.804366,551.639219 128.856281,552.608237 127.65839,552.65216 L127.652216,552.65216 Z M105.863203,552.65216 C104.618239,552.657562 103.596832,551.682802 103.563286,550.45728 C103.54575,549.881921 103.76566,549.324109 104.172842,548.911116 C104.580023,548.498122 105.139739,548.265181 105.724282,548.26544 L105.869378,548.26544 C107.067269,548.309363 108.015353,549.278381 108.015353,550.4588 C108.015353,551.639219 107.067269,552.608237 105.869378,552.65216 L105.863203,552.65216 Z M84.0741909,552.65216 C82.8292267,552.657562 81.8078191,551.682802 81.7742739,550.45728 C81.7567375,549.881921 81.9766478,549.324109 82.3838294,548.911116 C82.791011,548.498122 83.3507266,548.265181 83.9352697,548.26544 L84.0803651,548.26544 C84.8959053,548.235537 85.662834,548.646925 86.0796232,549.337863 C86.4964125,550.028801 86.4964125,550.888799 86.0796232,551.579737 C85.662834,552.270675 84.8959053,552.682063 84.0803651,552.65216 L84.0741909,552.65216 Z M149.49371,345.68592 C148.249281,345.691284 147.228776,344.716077 147.19688,343.49104 C147.179343,342.915681 147.399254,342.357869 147.806435,341.944876 C148.213617,341.531882 148.773332,341.298941 149.357876,341.2992 L149.499884,341.2992 C150.315424,341.269297 151.082353,341.680685 151.499142,342.371623 C151.915931,343.062561 151.915931,343.922559 151.499142,344.613497 C151.082353,345.304435 150.315424,345.715823 149.499884,345.68592 L149.49371,345.68592 Z M127.707784,345.68592 C126.46282,345.691322 125.441412,344.716562 125.407867,343.49104 C125.390331,342.915681 125.610241,342.357869 126.017423,341.944876 C126.424604,341.531882 126.98432,341.298941 127.568863,341.2992 L127.695436,341.2992 C128.893327,341.343123 129.841411,342.312141 129.841411,343.49256 C129.841411,344.672979 128.893327,345.641997 127.695436,345.68592 L127.707784,345.68592 Z M105.918772,345.68592 C104.673808,345.691322 103.6524,344.716562 103.618855,343.49104 C103.601318,342.915681 103.821229,342.357869 104.22841,341.944876 C104.635592,341.531882 105.195308,341.298941 105.779851,341.2992 L105.924946,341.2992 C107.122837,341.343123 108.070922,342.312141 108.070922,343.49256 C108.070922,344.672979 107.122837,345.641997 105.924946,345.68592 L105.918772,345.68592 Z M84.1297593,345.68592 C82.8847952,345.691322 81.8633875,344.716562 81.8298423,343.49104 C81.812306,342.915681 82.0322163,342.357869 82.4393979,341.944876 C82.8465795,341.531882 83.4062951,341.298941 83.9908382,341.2992 L84.1359336,341.2992 C85.333825,341.343123 86.2819093,342.312141 86.2819093,343.49256 C86.2819093,344.672979 85.333825,345.641997 84.1359336,345.68592 L84.1297593,345.68592 Z M149.49371,460.68 C148.25045,460.685402 147.230424,459.712003 147.19688,458.48816 C147.178491,457.912283 147.398023,457.353675 147.805298,456.940014 C148.212574,456.526352 148.77278,456.292995 149.357876,456.29328 L149.499884,456.29328 C150.315424,456.263377 151.082353,456.674765 151.499142,457.365703 C151.915931,458.056641 151.915931,458.916639 151.499142,459.607577 C151.082353,460.298515 150.315424,460.709903 149.499884,460.68 L149.49371,460.68 Z M127.695436,460.68 C126.450978,460.687061 125.429087,459.71319 125.395519,458.48816 C125.37713,457.912283 125.596662,457.353675 126.003937,456.940014 C126.411213,456.526352 126.971419,456.292995 127.556515,456.29328 L127.695436,456.29328 C128.893327,456.337203 129.841411,457.306221 129.841411,458.48664 C129.841411,459.667059 128.893327,460.636077 127.695436,460.68 Z M105.906423,460.68 C104.661966,460.687061 103.640075,459.71319 103.606506,458.48816 C103.588117,457.912283 103.807649,457.353675 104.214925,456.940014 C104.6222,456.526352 105.182407,456.292995 105.767502,456.29328 L105.912598,456.29328 C107.110489,456.337203 108.058573,457.306221 108.058573,458.48664 C108.058573,459.667059 107.110489,460.636077 105.912598,460.68 L105.906423,460.68 Z M84.1174108,460.68 C82.8736139,460.685442 81.8526836,459.712487 81.8174938,458.48816 C81.799105,457.912283 82.0186366,457.353675 82.4259121,456.940014 C82.8331877,456.526352 83.3933941,456.292995 83.9784896,456.29328 L84.1235851,456.29328 C85.3214765,456.337203 86.2695607,457.306221 86.2695607,458.48664 C86.2695607,459.667059 85.3214765,460.636077 84.1235851,460.68 L84.1174108,460.68 Z M89.803917,432.3016 C88.9114421,432.304126 88.104733,431.778606 87.7579782,430.9688 C87.4112235,430.158995 87.5922655,429.223342 88.2171286,428.59584 L88.2665228,428.5472 C89.1439455,427.737899 90.5150438,427.75964 91.3655508,428.59634 C92.2160578,429.433041 92.2394795,430.783182 91.4184896,431.648 C90.9897666,432.068316 90.408885,432.303464 89.803917,432.3016 Z M104.202324,418.10176 C103.317197,418.104745 102.516109,417.58606 102.168089,416.784644 C101.820068,415.983228 101.992627,415.054544 102.606274,414.4264 L102.701975,414.33216 C103.571514,413.475898 104.981316,413.475898 105.850855,414.33216 C106.720394,415.188422 106.720394,416.576698 105.850855,417.43296 C105.412882,417.861947 104.820062,418.10245 104.202324,418.10176 Z M118.637776,403.88672 C117.753405,403.889751 116.952819,403.371987 116.604284,402.571597 C116.255749,401.771207 116.426754,400.843179 117.038639,400.2144 L117.13434,400.12016 C117.696833,399.566255 118.516685,399.349931 119.285065,399.552674 C120.053445,399.755417 120.653618,400.346426 120.859505,401.103074 C121.065392,401.859722 120.845713,402.667055 120.28322,403.22096 C119.846457,403.649505 119.254336,403.889082 118.637776,403.88672 Z M133.073228,389.67472 C132.18754,389.678933 131.385312,389.160701 131.0365,388.359012 C130.687688,387.557322 130.860046,386.627901 131.474091,385.99936 L131.569793,385.90512 C132.44802,385.096666 133.819096,385.11973 134.66877,385.95725 C135.518444,386.794771 135.540522,388.144935 134.718672,389.00896 C134.28039,389.435249 133.689258,389.674426 133.073228,389.67472 Z M147.496332,375.49008 C146.597771,375.493811 145.786083,374.962243 145.442115,374.144791 C145.098147,373.327339 145.290162,372.386231 145.928066,371.76304 L145.983635,371.7144 C146.553849,371.168098 147.376715,370.962855 148.14227,371.175983 C148.907824,371.389112 149.499759,371.988233 149.695099,372.747663 C149.89044,373.507094 149.659508,374.311458 149.089295,374.85776 C148.662225,375.264822 148.090692,375.491689 147.496332,375.49008 Z M87.8250622,536.5128 C86.9325874,536.515326 86.1258782,535.989806 85.7791234,535.18 C85.4323687,534.370195 85.6134107,533.434542 86.2382739,532.80704 L86.2907552,532.7584 C87.1602943,531.902138 88.5700956,531.902138 89.4396346,532.7584 C90.3091736,533.614662 90.3091737,535.002938 89.4396349,535.8592 C89.0109118,536.279516 88.4300302,536.514664 87.8250622,536.5128 Z M102.226556,522.30992 C101.342746,522.311727 100.543297,521.793512 100.195552,520.993393 C99.8478079,520.193275 100.019016,519.26598 100.630506,518.6376 L100.726207,518.54336 C101.595747,517.687098 103.005548,517.687098 103.875087,518.54336 C104.744626,519.399622 104.744626,520.787898 103.875087,521.64416 C103.436801,522.072315 102.843919,522.311751 102.226556,522.30992 Z M116.662008,508.09792 C115.777715,508.099257 114.977961,507.580765 114.629702,506.780346 C114.281442,505.979927 114.451903,505.052091 115.062871,504.42256 L115.158573,504.32832 C116.028112,503.472058 117.437913,503.472058 118.307452,504.32832 C119.176991,505.184582 119.176991,506.572858 118.307452,507.42912 C117.872017,507.860725 117.279834,508.103609 116.662008,508.104 L116.662008,508.09792 Z M131.091286,493.88288 C130.20616,493.885865 129.405072,493.36718 129.057051,492.565764 C128.709031,491.764348 128.88159,490.835664 129.495237,490.20752 L129.587851,490.11632 C130.143702,489.530795 130.979474,489.290199 131.768075,489.488694 C132.556677,489.687188 133.172694,490.293205 133.375039,491.069571 C133.577383,491.845936 133.333876,492.669183 132.739817,493.21712 C132.301531,493.645275 131.708649,493.884711 131.091286,493.88288 Z M145.520564,479.70128 C144.628863,479.70383 143.82268,479.179235 143.475412,478.37047 C143.128145,477.561704 143.307611,476.626716 143.930689,475.99856 L143.98317,475.94688 C144.852709,475.090618 146.262511,475.090618 147.13205,475.94688 C148.001589,476.803142 148.001589,478.191418 147.13205,479.04768 C146.704468,479.467818 146.124597,479.703007 145.520564,479.70128 Z M217.02483,529.7336 C215.79554,529.7336 214.799004,528.75228 214.799004,527.54176 L214.799004,527.38672 C214.843608,526.207119 215.827652,525.273511 217.026373,525.273511 C218.225095,525.273511 219.209139,526.207119 219.253743,527.38672 L219.253743,527.54176 C219.253743,528.123599 219.018814,528.681563 218.600722,529.092701 C218.182631,529.503838 217.61569,529.734407 217.02483,529.7336 Z M217.02483,506.736 C215.79554,506.736 214.799004,505.75468 214.799004,504.54416 L214.799004,504.38912 C214.843608,503.209519 215.827652,502.275911 217.026373,502.275911 C218.225095,502.275911 219.209139,503.209519 219.253743,504.38912 L219.253743,504.54416 C219.253743,505.125999 219.018814,505.683963 218.600722,506.095101 C218.182631,506.506238 217.61569,506.736807 217.02483,506.736 Z M217.02483,483.7384 C215.79554,483.7384 214.799004,482.75708 214.799004,481.54656 L214.799004,481.39456 C214.843608,480.214959 215.827652,479.281351 217.026373,479.281351 C218.225095,479.281351 219.209139,480.214959 219.253743,481.39456 L219.253743,481.54656 C219.253743,482.128399 219.018814,482.686363 218.600722,483.097501 C218.182631,483.508638 217.61569,483.739207 217.02483,483.7384 Z M217.02483,437.74624 C216.433969,437.746241 215.867353,437.514898 215.449841,437.10319 C215.032329,436.691483 214.798185,436.133199 214.799004,435.55136 L214.799004,435.4024 C214.768637,434.599312 215.186405,433.844094 215.888056,433.433668 C216.589707,433.023243 217.46304,433.023243 218.164691,433.433668 C218.866342,433.844094 219.28411,434.599312 219.253743,435.4024 L219.253743,435.55136 C219.253743,436.763559 218.255824,437.74624 217.02483,437.74624 Z M217.02483,414.74864 C215.79554,414.74864 214.799004,413.76732 214.799004,412.5568 L214.799004,412.4048 C214.768637,411.601712 215.186405,410.846494 215.888056,410.436068 C216.589707,410.025643 217.46304,410.025643 218.164691,410.436068 C218.866342,410.846494 219.28411,411.601712 219.253743,412.4048 L219.253743,412.5568 C219.253743,413.138639 219.018814,413.696603 218.600722,414.107741 C218.182631,414.518878 217.61569,414.749447 217.02483,414.74864 Z M217.02483,391.75104 C215.79554,391.75104 214.799004,390.76972 214.799004,389.5592 L214.799004,389.4072 C214.843608,388.227599 215.827652,387.293991 217.026373,387.293991 C218.225095,387.293991 219.209139,388.227599 219.253743,389.4072 L219.253743,389.5592 C219.253743,390.141039 219.018814,390.699003 218.600722,391.110141 C218.182631,391.521278 217.61569,391.751847 217.02483,391.75104 Z M217.02483,368.75648 C216.433969,368.756481 215.867353,368.525138 215.449841,368.11343 C215.032329,367.701723 214.798185,367.143439 214.799004,366.5616 L214.799004,366.4096 C214.843608,365.229999 215.827652,364.296391 217.026373,364.296391 C218.225095,364.296391 219.209139,365.229999 219.253743,366.4096 L219.253743,366.5616 C219.253743,367.773799 218.255824,368.75648 217.02483,368.75648 Z M326.031635,529.7336 C325.440774,529.734407 324.873834,529.503838 324.455742,529.092701 C324.037651,528.681563 323.802721,528.123599 323.802722,527.54176 L323.802722,527.38672 C323.847326,526.207119 324.83137,525.273511 326.030091,525.273511 C327.228813,525.273511 328.212857,526.207119 328.257461,527.38672 L328.257461,527.54176 C328.257461,528.75228 327.260924,529.7336 326.031635,529.7336 Z M326.031635,506.736 C325.440774,506.736807 324.873834,506.506238 324.455742,506.095101 C324.037651,505.683963 323.802721,505.125999 323.802722,504.54416 L323.802722,504.38912 C323.847326,503.209519 324.83137,502.275911 326.030091,502.275911 C327.228813,502.275911 328.212857,503.209519 328.257461,504.38912 L328.257461,504.54416 C328.257461,505.75468 327.260924,506.736 326.031635,506.736 Z M326.031635,483.7384 C325.440774,483.739207 324.873834,483.508638 324.455742,483.097501 C324.037651,482.686363 323.802721,482.128399 323.802722,481.54656 L323.802722,481.39456 C323.847326,480.214959 324.83137,479.281351 326.030091,479.281351 C327.228813,479.281351 328.212857,480.214959 328.257461,481.39456 L328.257461,481.54656 C328.257461,482.75708 327.260924,483.7384 326.031635,483.7384 Z M326.031635,437.74624 C324.80064,437.74624 323.802722,436.763559 323.802722,435.55136 L323.802722,435.4024 C323.772355,434.599312 324.190122,433.844094 324.891774,433.433668 C325.593425,433.023243 326.466757,433.023243 327.168409,433.433668 C327.87006,433.844094 328.287828,434.599312 328.257461,435.4024 L328.257461,435.55136 C328.25828,436.133199 328.024136,436.691483 327.606624,437.10319 C327.189112,437.514898 326.622496,437.746241 326.031635,437.74624 Z M326.031635,414.74864 C325.440774,414.749447 324.873834,414.518878 324.455742,414.107741 C324.037651,413.696603 323.802721,413.138639 323.802722,412.5568 L323.802722,412.4048 C323.772355,411.601712 324.190122,410.846494 324.891774,410.436068 C325.593425,410.025643 326.466757,410.025643 327.168409,410.436068 C327.87006,410.846494 328.287828,411.601712 328.257461,412.4048 L328.257461,412.5568 C328.257461,413.138112 328.022955,413.695615 327.605531,414.106665 C327.188108,414.517715 326.621961,414.74864 326.031635,414.74864 Z M326.031635,391.75104 C325.440774,391.751847 324.873834,391.521278 324.455742,391.110141 C324.037651,390.699003 323.802721,390.141039 323.802722,389.5592 L323.802722,389.4072 C323.847326,388.227599 324.83137,387.293991 326.030091,387.293991 C327.228813,387.293991 328.212857,388.227599 328.257461,389.4072 L328.257461,389.5592 C328.257461,390.140512 328.022955,390.698015 327.605531,391.109065 C327.188108,391.520115 326.621961,391.75104 326.031635,391.75104 Z M326.031635,368.75648 C324.80064,368.75648 323.802722,367.773799 323.802722,366.5616 L323.802722,366.4096 C323.847326,365.229999 324.83137,364.296391 326.030091,364.296391 C327.228813,364.296391 328.212857,365.229999 328.257461,366.4096 L328.257461,366.5616 C328.25828,367.143439 328.024136,367.701723 327.606624,368.11343 C327.189112,368.525138 326.622496,368.756481 326.031635,368.75648 Z M304.254971,552.65216 C303.010007,552.657562 301.988599,551.682802 301.955054,550.45728 C301.937518,549.881921 302.157428,549.324109 302.56461,548.911116 C302.971791,548.498122 303.531507,548.265181 304.11605,548.26544 L304.258058,548.26544 C305.073598,548.235537 305.840527,548.646925 306.257316,549.337863 C306.674105,550.028801 306.674105,550.888799 306.257316,551.579737 C305.840527,552.270675 305.073598,552.682063 304.258058,552.65216 L304.254971,552.65216 Z M282.465959,552.65216 C281.220994,552.657562 280.199587,551.682802 280.166041,550.45728 C280.148505,549.881921 280.368415,549.324109 280.775597,548.911116 C281.182779,548.498122 281.742494,548.265181 282.327037,548.26544 L282.472133,548.26544 C283.287673,548.235537 284.054602,548.646925 284.471391,549.337863 C284.88818,550.028801 284.88818,550.888799 284.471391,551.579737 C284.054602,552.270675 283.287673,552.682063 282.472133,552.65216 L282.465959,552.65216 Z M260.676946,552.65216 C259.432517,552.657524 258.412013,551.682317 258.380116,550.45728 C258.36258,549.881921 258.58249,549.324109 258.989672,548.911116 C259.396853,548.498122 259.956569,548.265181 260.541112,548.26544 L260.68312,548.26544 C261.49866,548.235537 262.265589,548.646925 262.682378,549.337863 C263.099168,550.028801 263.099168,550.888799 262.682378,551.579737 C262.265589,552.270675 261.49866,552.682063 260.68312,552.65216 L260.676946,552.65216 Z M238.891021,552.65216 C237.646057,552.657562 236.624649,551.682802 236.591104,550.45728 C236.573567,549.881921 236.793478,549.324109 237.200659,548.911116 C237.607841,548.498122 238.167556,548.265181 238.7521,548.26544 L238.897195,548.26544 C240.095086,548.309363 241.043171,549.278381 241.043171,550.4588 C241.043171,551.639219 240.095086,552.608237 238.897195,552.65216 L238.891021,552.65216 Z M304.310539,345.68592 C303.065575,345.691322 302.044168,344.716562 302.010622,343.49104 C301.993086,342.915681 302.212996,342.357869 302.620178,341.944876 C303.02736,341.531882 303.587075,341.298941 304.171618,341.2992 L304.316714,341.2992 C305.514605,341.343123 306.462689,342.312141 306.462689,343.49256 C306.462689,344.672979 305.514605,345.641997 304.316714,345.68592 L304.310539,345.68592 Z M282.521527,345.68592 C281.276563,345.691322 280.255155,344.716562 280.22161,343.49104 C280.204074,342.915681 280.423984,342.357869 280.831166,341.944876 C281.238347,341.531882 281.798063,341.298941 282.382606,341.2992 L282.527701,341.2992 C283.343241,341.269297 284.11017,341.680685 284.526959,342.371623 C284.943749,343.062561 284.943749,343.922559 284.526959,344.613497 C284.11017,345.304435 283.343241,345.715823 282.527701,345.68592 L282.521527,345.68592 Z M260.732515,345.68592 C259.488086,345.691284 258.467581,344.716077 258.435685,343.49104 C258.418148,342.915681 258.638059,342.357869 259.04524,341.944876 C259.452422,341.531882 260.012137,341.298941 260.59668,341.2992 L260.738689,341.2992 C261.554229,341.269297 262.321158,341.680685 262.737947,342.371623 C263.154736,343.062561 263.154736,343.922559 262.737947,344.613497 C262.321158,345.304435 261.554229,345.715823 260.738689,345.68592 L260.732515,345.68592 Z M238.943502,345.68592 C237.698538,345.691322 236.67713,344.716562 236.643585,343.49104 C236.626049,342.915681 236.845959,342.357869 237.253141,341.944876 C237.660322,341.531882 238.220038,341.298941 238.804581,341.2992 L238.949676,341.2992 C239.765216,341.269297 240.532145,341.680685 240.948934,342.371623 C241.365724,343.062561 241.365724,343.922559 240.948934,344.613497 C240.532145,345.304435 239.765216,345.715823 238.949676,345.68592 L238.943502,345.68592 Z M304.310539,460.68 C303.066742,460.685442 302.045812,459.712487 302.010622,458.48816 C301.992234,457.912283 302.211765,457.353675 302.619041,456.940014 C303.026316,456.526352 303.586523,456.292995 304.171618,456.29328 L304.316714,456.29328 C305.514605,456.337203 306.462689,457.306221 306.462689,458.48664 C306.462689,459.667059 305.514605,460.636077 304.316714,460.68 L304.310539,460.68 Z M282.521527,460.68 C281.27773,460.685442 280.2568,459.712487 280.22161,458.48816 C280.203221,457.912283 280.422753,457.353675 280.830028,456.940014 C281.237304,456.526352 281.79751,456.292995 282.382606,456.29328 L282.527701,456.29328 C283.343241,456.263377 284.11017,456.674765 284.526959,457.365703 C284.943749,458.056641 284.943749,458.916639 284.526959,459.607577 C284.11017,460.298515 283.343241,460.709903 282.527701,460.68 L282.521527,460.68 Z M260.732515,460.68 C259.489255,460.685402 258.469229,459.712003 258.435685,458.48816 C258.417296,457.912283 258.636827,457.353675 259.044103,456.940014 C259.451379,456.526352 260.011585,456.292995 260.59668,456.29328 L260.738689,456.29328 C261.554229,456.263377 262.321158,456.674765 262.737947,457.365703 C263.154736,458.056641 263.154736,458.916639 262.737947,459.607577 C262.321158,460.298515 261.554229,460.709903 260.738689,460.68 L260.732515,460.68 Z M238.943502,460.68 C237.699705,460.685442 236.678775,459.712487 236.643585,458.48816 C236.625196,457.912283 236.844728,457.353675 237.252003,456.940014 C237.659279,456.526352 238.219485,456.292995 238.804581,456.29328 L238.949676,456.29328 C239.765216,456.263377 240.532145,456.674765 240.948934,457.365703 C241.365724,458.056641 241.365724,458.916639 240.948934,459.607577 C240.532145,460.298515 239.765216,460.709903 238.949676,460.68 L238.943502,460.68 Z M244.61766,432.3016 C243.725185,432.304126 242.918476,431.778606 242.571721,430.9688 C242.224966,430.158995 242.406008,429.223342 243.030871,428.59584 L243.083353,428.5472 C243.952892,427.690938 245.362693,427.690938 246.232232,428.5472 C247.101771,429.403462 247.101771,430.791738 246.232232,431.648 C245.803509,432.068316 245.222628,432.303464 244.61766,432.3016 Z M259.019154,418.10176 C258.13486,418.103097 257.335107,417.584605 256.986847,416.784186 C256.638588,415.983767 256.809048,415.055931 257.420017,414.4264 L257.515718,414.33216 C258.385257,413.475898 259.795058,413.475898 260.664598,414.33216 C261.534137,415.188422 261.534137,416.576698 260.664598,417.43296 C260.228148,417.862335 259.63609,418.10298 259.019154,418.10176 Z M273.451519,403.88672 C272.567709,403.888527 271.768259,403.370312 271.420515,402.570193 C271.072771,401.770075 271.243978,400.84278 271.855469,400.2144 L271.95117,400.12016 C272.820709,399.263898 274.230511,399.263898 275.10005,400.12016 C275.969589,400.976422 275.969589,402.364698 275.10005,403.22096 C274.661764,403.649115 274.068882,403.888551 273.451519,403.88672 Z M287.886971,389.67472 C287.002678,389.676057 286.202924,389.157565 285.854664,388.357146 C285.506405,387.556727 285.676866,386.628891 286.287834,385.99936 L286.383535,385.90512 C287.261763,385.096666 288.632839,385.11973 289.482513,385.95725 C290.332187,386.794771 290.354265,388.144935 289.532415,389.00896 C289.094698,389.436089 288.503199,389.675414 287.886971,389.67472 Z M302.313162,375.49008 C301.414601,375.493811 300.602913,374.962243 300.258945,374.144791 C299.914977,373.327339 300.106992,372.386231 300.744896,371.76304 L300.797378,371.7144 C301.678852,370.86989 303.088653,370.888945 303.946257,371.75696 C304.803862,372.624975 304.784511,374.01325 303.903037,374.85776 C303.476734,375.264088 302.906454,375.490898 302.313162,375.49008 Z M242.641892,536.5128 C241.750281,536.513634 240.944953,535.988314 240.597964,535.179534 C240.250974,534.370753 240.429875,533.435967 241.052017,532.80704 L241.104498,532.7584 C241.974037,531.902138 243.383838,531.902138 244.253378,532.7584 C245.122917,533.614662 245.122917,535.002938 244.253378,535.8592 C243.825795,536.279338 243.245925,536.514527 242.641892,536.5128 Z M257.046473,522.30992 C256.162102,522.312951 255.361516,521.795187 255.012981,520.994797 C254.664446,520.194407 254.835451,519.266379 255.447336,518.6376 L255.543037,518.54336 C256.412576,517.687098 257.822378,517.687098 258.691917,518.54336 C259.561456,519.399622 259.561456,520.787898 258.691917,521.64416 C258.255154,522.072705 257.663033,522.312282 257.046473,522.30992 Z M271.478838,508.09792 C270.594545,508.099257 269.794791,507.580765 269.446532,506.780346 C269.098272,505.979927 269.268733,505.052091 269.879701,504.42256 L269.975402,504.32832 C270.531253,503.742795 271.367026,503.502199 272.155627,503.700694 C272.944229,503.899188 273.560246,504.505205 273.76259,505.281571 C273.964935,506.057936 273.721428,506.881183 273.127369,507.42912 C272.689649,507.861081 272.095444,508.103883 271.475751,508.104 L271.478838,508.09792 Z M285.91429,493.88288 C285.028602,493.887093 284.226375,493.368861 283.877562,492.567172 C283.52875,491.765482 283.701109,490.836061 284.315154,490.20752 L284.410855,490.11632 C285.280394,489.260058 286.690195,489.260058 287.559734,490.11632 C288.429274,490.972582 288.429274,492.360858 287.559734,493.21712 C287.121448,493.645275 286.528566,493.884711 285.911203,493.88288 L285.91429,493.88288 Z M300.334307,479.70128 C299.443168,479.702601 298.638125,479.177555 298.291649,478.369064 C297.945173,477.560573 298.124838,476.626321 298.747519,475.99856 L298.8,475.94688 C299.362493,475.392975 300.182345,475.176651 300.950725,475.379394 C301.719105,475.582137 302.319278,476.173146 302.525165,476.929794 C302.731052,477.686442 302.511373,478.493775 301.94888,479.04768 C301.520157,479.467996 300.939275,479.703144 300.334307,479.70128 Z M371.84166,529.7336 C370.61187,529.733601 369.61445,528.752771 369.612747,527.54176 L369.612747,527.38672 C369.657351,526.207119 370.641395,525.273511 371.840116,525.273511 C373.038838,525.273511 374.022881,526.207119 374.067485,527.38672 L374.067485,527.54176 C374.067485,528.75228 373.070949,529.7336 371.84166,529.7336 Z M371.84166,506.736 C370.61187,506.736001 369.61445,505.755171 369.612747,504.54416 L369.612747,504.38912 C369.657351,503.209519 370.641395,502.275911 371.840116,502.275911 C373.038838,502.275911 374.022881,503.209519 374.067485,504.38912 L374.067485,504.54416 C374.067485,505.75468 373.070949,506.736 371.84166,506.736 Z M371.84166,483.7384 C370.61187,483.738401 369.61445,482.757571 369.612747,481.54656 L369.612747,481.39456 C369.657351,480.214959 370.641395,479.281351 371.840116,479.281351 C373.038838,479.281351 374.022881,480.214959 374.067485,481.39456 L374.067485,481.54656 C374.067485,482.75708 373.070949,483.7384 371.84166,483.7384 Z M371.84166,437.74624 C370.610665,437.74624 369.612747,436.763559 369.612747,435.55136 L369.612747,435.4024 C369.58238,434.599312 370.000147,433.844094 370.701799,433.433668 C371.40345,433.023243 372.276782,433.023243 372.978434,433.433668 C373.680085,433.844094 374.097853,434.599312 374.067485,435.4024 L374.067485,435.55136 C374.068305,436.133199 373.834161,436.691483 373.416649,437.10319 C372.999137,437.514898 372.432521,437.746241 371.84166,437.74624 Z M371.84166,414.74864 C370.61187,414.748641 369.61445,413.767811 369.612747,412.5568 L369.612747,412.4048 C369.58238,411.601712 370.000147,410.846494 370.701799,410.436068 C371.40345,410.025643 372.276782,410.025643 372.978434,410.436068 C373.680085,410.846494 374.097853,411.601712 374.067485,412.4048 L374.067485,412.5568 C374.067485,413.138112 373.83298,413.695615 373.415556,414.106665 C372.998133,414.517715 372.431985,414.74864 371.84166,414.74864 Z M371.84166,391.75104 C370.61187,391.751041 369.61445,390.770211 369.612747,389.5592 L369.612747,389.4072 C369.657351,388.227599 370.641395,387.293991 371.840116,387.293991 C373.038838,387.293991 374.022881,388.227599 374.067485,389.4072 L374.067485,389.5592 C374.067485,390.140512 373.83298,390.698015 373.415556,391.109065 C372.998133,391.520115 372.431985,391.75104 371.84166,391.75104 Z M371.84166,368.75648 C370.610665,368.75648 369.612747,367.773799 369.612747,366.5616 L369.612747,366.4096 C369.657351,365.229999 370.641395,364.296391 371.840116,364.296391 C373.038838,364.296391 374.022881,365.229999 374.067485,366.4096 L374.067485,366.5616 C374.068305,367.143439 373.834161,367.701723 373.416649,368.11343 C372.999137,368.525138 372.432521,368.756481 371.84166,368.75648 Z M480.845378,529.7336 C479.615588,529.733601 478.618168,528.752771 478.616465,527.54176 L478.616465,527.38672 C478.661069,526.207119 479.645112,525.273511 480.843834,525.273511 C482.042556,525.273511 483.026599,526.207119 483.071203,527.38672 L483.071203,527.54176 C483.071203,528.75228 482.074667,529.7336 480.845378,529.7336 Z M480.845378,506.736 C479.615588,506.736001 478.618168,505.755171 478.616465,504.54416 L478.616465,504.38912 C478.661069,503.209519 479.645112,502.275911 480.843834,502.275911 C482.042556,502.275911 483.026599,503.209519 483.071203,504.38912 L483.071203,504.54416 C483.071203,505.75468 482.074667,506.736 480.845378,506.736 Z M480.845378,483.7384 C479.615588,483.738401 478.618168,482.757571 478.616465,481.54656 L478.616465,481.39456 C478.661069,480.214959 479.645112,479.281351 480.843834,479.281351 C482.042556,479.281351 483.026599,480.214959 483.071203,481.39456 L483.071203,481.54656 C483.071203,482.75708 482.074667,483.7384 480.845378,483.7384 Z M480.845378,437.74624 C479.614383,437.74624 478.616465,436.763559 478.616465,435.55136 L478.616465,435.4024 C478.586098,434.599312 479.003865,433.844094 479.705517,433.433668 C480.407168,433.023243 481.2805,433.023243 481.982152,433.433668 C482.683803,433.844094 483.10157,434.599312 483.071203,435.4024 L483.071203,435.55136 C483.072023,436.133199 482.837879,436.691483 482.420367,437.10319 C482.002854,437.514898 481.436239,437.746241 480.845378,437.74624 Z M480.845378,414.74864 C479.615588,414.748641 478.618168,413.767811 478.616465,412.5568 L478.616465,412.4048 C478.586098,411.601712 479.003865,410.846494 479.705517,410.436068 C480.407168,410.025643 481.2805,410.025643 481.982152,410.436068 C482.683803,410.846494 483.10157,411.601712 483.071203,412.4048 L483.071203,412.5568 C483.071203,413.138112 482.836697,413.695615 482.419274,414.106665 C482.001851,414.517715 481.435703,414.74864 480.845378,414.74864 Z M480.845378,391.75104 C479.615588,391.751041 478.618168,390.770211 478.616465,389.5592 L478.616465,389.4072 C478.661069,388.227599 479.645112,387.293991 480.843834,387.293991 C482.042556,387.293991 483.026599,388.227599 483.071203,389.4072 L483.071203,389.5592 C483.071203,390.140512 482.836697,390.698015 482.419274,391.109065 C482.001851,391.520115 481.435703,391.75104 480.845378,391.75104 Z M480.845378,368.75648 C479.614383,368.75648 478.616465,367.773799 478.616465,366.5616 L478.616465,366.4096 C478.661069,365.229999 479.645112,364.296391 480.843834,364.296391 C482.042556,364.296391 483.026599,365.229999 483.071203,366.4096 L483.071203,366.5616 C483.072023,367.143439 482.837879,367.701723 482.420367,368.11343 C482.002854,368.525138 481.436239,368.756481 480.845378,368.75648 Z M459.068714,552.65216 C457.824285,552.657524 456.803781,551.682317 456.771884,550.45728 C456.754347,549.881921 456.974258,549.324109 457.381439,548.911116 C457.788621,548.498122 458.348337,548.265181 458.93288,548.26544 L459.074888,548.26544 C459.890428,548.235537 460.657357,548.646925 461.074146,549.337863 C461.490935,550.028801 461.490935,550.888799 461.074146,551.579737 C460.657357,552.270675 459.890428,552.682063 459.074888,552.65216 L459.068714,552.65216 Z M437.282788,552.65216 C436.037824,552.657562 435.016417,551.682802 434.982871,550.45728 C434.965335,549.881921 435.185245,549.324109 435.592427,548.911116 C435.999609,548.498122 436.559324,548.265181 437.143867,548.26544 L437.288963,548.26544 C438.486854,548.309363 439.434938,549.278381 439.434938,550.4588 C439.434938,551.639219 438.486854,552.608237 437.288963,552.65216 L437.282788,552.65216 Z M415.493776,552.65216 C414.248812,552.657562 413.227404,551.682802 413.193859,550.45728 C413.176323,549.881921 413.396233,549.324109 413.803414,548.911116 C414.210596,548.498122 414.770312,548.265181 415.354855,548.26544 L415.49995,548.26544 C416.697842,548.309363 417.645926,549.278381 417.645926,550.4588 C417.645926,551.639219 416.697842,552.608237 415.49995,552.65216 L415.493776,552.65216 Z M393.704763,552.65216 C392.459799,552.657562 391.438392,551.682802 391.404846,550.45728 C391.38731,549.881921 391.60722,549.324109 392.014402,548.911116 C392.421584,548.498122 392.981299,548.265181 393.565842,548.26544 L393.710938,548.26544 C394.908829,548.309363 395.856913,549.278381 395.856913,550.4588 C395.856913,551.639219 394.908829,552.608237 393.710938,552.65216 L393.704763,552.65216 Z M459.124282,345.68592 C457.879318,345.691322 456.85791,344.716562 456.824365,343.49104 C456.806829,342.915681 457.026739,342.357869 457.433921,341.944876 C457.841102,341.531882 458.400818,341.298941 458.985361,341.2992 L459.127369,341.2992 C459.942909,341.269297 460.709838,341.680685 461.126627,342.371623 C461.543417,343.062561 461.543417,343.922559 461.126627,344.613497 C460.709838,345.304435 459.942909,345.715823 459.127369,345.68592 L459.124282,345.68592 Z M437.338357,345.68592 C436.093393,345.691322 435.071985,344.716562 435.03844,343.49104 C435.020903,342.915681 435.240814,342.357869 435.647995,341.944876 C436.055177,341.531882 436.614893,341.298941 437.199436,341.2992 L437.344531,341.2992 C438.542423,341.343123 439.490507,342.312141 439.490507,343.49256 C439.490507,344.672979 438.542423,345.641997 437.344531,345.68592 L437.338357,345.68592 Z M415.546257,345.68592 C414.301829,345.691284 413.281324,344.716077 413.249427,343.49104 C413.231891,342.915681 413.451801,342.357869 413.858983,341.944876 C414.266165,341.531882 414.82588,341.298941 415.410423,341.2992 L415.552432,341.2992 C416.367972,341.269297 417.1349,341.680685 417.55169,342.371623 C417.968479,343.062561 417.968479,343.922559 417.55169,344.613497 C417.1349,345.304435 416.367972,345.715823 415.552432,345.68592 L415.546257,345.68592 Z M393.760332,345.68592 C392.515368,345.691322 391.49396,344.716562 391.460415,343.49104 C391.442879,342.915681 391.662789,342.357869 392.069971,341.944876 C392.477152,341.531882 393.036868,341.298941 393.621411,341.2992 L393.766506,341.2992 C394.964398,341.343123 395.912482,342.312141 395.912482,343.49256 C395.912482,344.672979 394.964398,345.641997 393.766506,345.68592 L393.760332,345.68592 Z M459.124282,460.68 C457.880485,460.685442 456.859555,459.712487 456.824365,458.48816 C456.805976,457.912283 457.025508,457.353675 457.432784,456.940014 C457.840059,456.526352 458.400265,456.292995 458.985361,456.29328 L459.127369,456.29328 C459.942909,456.263377 460.709838,456.674765 461.126627,457.365703 C461.543417,458.056641 461.543417,458.916639 461.126627,459.607577 C460.709838,460.298515 459.942909,460.709903 459.127369,460.68 L459.124282,460.68 Z M437.338357,460.68 C436.0939,460.687061 435.072008,459.71319 435.03844,458.48816 C435.020051,457.912283 435.239583,457.353675 435.646858,456.940014 C436.054134,456.526352 436.61434,456.292995 437.199436,456.29328 L437.344531,456.29328 C438.542423,456.337203 439.490507,457.306221 439.490507,458.48664 C439.490507,459.667059 438.542423,460.636077 437.344531,460.68 L437.338357,460.68 Z M415.546257,460.68 C414.302998,460.685402 413.282972,459.712003 413.249427,458.48816 C413.231039,457.912283 413.45057,457.353675 413.857846,456.940014 C414.265121,456.526352 414.825328,456.292995 415.410423,456.29328 L415.552432,456.29328 C416.367972,456.263377 417.1349,456.674765 417.55169,457.365703 C417.968479,458.056641 417.968479,458.916639 417.55169,459.607577 C417.1349,460.298515 416.367972,460.709903 415.552432,460.68 L415.546257,460.68 Z M393.760332,460.68 C392.515875,460.687061 391.493983,459.71319 391.460415,458.48816 C391.442026,457.912283 391.661558,457.353675 392.068833,456.940014 C392.476109,456.526352 393.036315,456.292995 393.621411,456.29328 L393.766506,456.29328 C394.964398,456.337203 395.912482,457.306221 395.912482,458.48664 C395.912482,459.667059 394.964398,460.636077 393.766506,460.68 L393.760332,460.68 Z M399.43449,432.3016 C398.542879,432.302434 397.737551,431.777114 397.390561,430.968334 C397.043571,430.159553 397.222473,429.224767 397.844614,428.59584 L397.897095,428.5472 C398.766635,427.690938 400.176436,427.690938 401.045975,428.5472 C401.915514,429.403462 401.915514,430.791738 401.045975,431.648 C400.618393,432.068138 400.038522,432.303327 399.43449,432.3016 Z M413.832896,418.10176 C412.94777,418.104745 412.146682,417.58606 411.798661,416.784644 C411.450641,415.983228 411.6232,415.054544 412.236846,414.4264 L412.332548,414.33216 C413.202087,413.475898 414.611888,413.475898 415.481427,414.33216 C416.350966,415.188422 416.350966,416.576698 415.481427,417.43296 C415.043454,417.861947 414.450635,418.10245 413.832896,418.10176 Z M428.268349,403.88672 C427.383978,403.889751 426.583392,403.371987 426.234857,402.571597 C425.886321,401.771207 426.057327,400.843179 426.669212,400.2144 L426.764913,400.12016 C427.327406,399.566255 428.147258,399.349931 428.915638,399.552674 C429.684018,399.755417 430.284191,400.346426 430.490078,401.103074 C430.695964,401.859722 430.476286,402.667055 429.913793,403.22096 C429.47703,403.649505 428.884909,403.889082 428.268349,403.88672 Z M442.703801,389.67472 C441.818113,389.678933 441.015885,389.160701 440.667073,388.359012 C440.31826,387.557322 440.490619,386.627901 441.104664,385.99936 L441.197278,385.90512 C442.070417,385.064086 443.468287,385.071683 444.331946,385.922155 C445.195605,386.772627 445.203319,388.149153 444.349245,389.00896 C443.910963,389.435249 443.319831,389.674426 442.703801,389.67472 Z M457.126905,375.49008 C456.228344,375.493811 455.416656,374.962243 455.072688,374.144791 C454.72872,373.327339 454.920735,372.386231 455.558639,371.76304 L455.614207,371.7144 C456.184421,371.168098 457.007288,370.962855 457.772842,371.175983 C458.538396,371.389112 459.130332,371.988233 459.325672,372.747663 C459.521012,373.507094 459.290081,374.311458 458.719867,374.85776 C458.292436,375.264274 457.721139,375.491048 457.126905,375.49008 Z M397.455635,536.5128 C396.56316,536.515326 395.756451,535.989806 395.409696,535.18 C395.062941,534.370195 395.243983,533.434542 395.868846,532.80704 L395.921328,532.7584 C396.790867,531.902138 398.200668,531.902138 399.070207,532.7584 C399.939746,533.614662 399.939746,535.002938 399.070207,535.8592 C398.641484,536.279516 398.060603,536.514664 397.455635,536.5128 Z M411.857129,522.30992 C410.972758,522.312951 410.172172,521.795187 409.823637,520.994797 C409.475101,520.194407 409.646107,519.266379 410.257992,518.6376 L410.353693,518.54336 C410.909544,517.957835 411.745316,517.717239 412.533918,517.915734 C413.32252,518.114228 413.938536,518.720245 414.140881,519.496611 C414.343226,520.272976 414.099719,521.096223 413.50566,521.64416 C413.067374,522.072315 412.474492,522.311751 411.857129,522.30992 Z M426.289494,508.09792 C425.404367,508.100905 424.603279,507.58222 424.255259,506.780804 C423.907238,505.979388 424.079797,505.050704 424.693444,504.42256 L424.789145,504.32832 C425.658684,503.472058 427.068486,503.472058 427.938025,504.32832 C428.807564,505.184582 428.807564,506.572858 427.938025,507.42912 C427.501061,507.860336 426.908117,508.103077 426.289494,508.104 L426.289494,508.09792 Z M440.724946,493.88288 C439.83982,493.885865 439.038731,493.36718 438.690711,492.565764 C438.342691,491.764348 438.515249,490.835664 439.128896,490.20752 L439.22151,490.11632 C440.091049,489.260058 441.500851,489.260058 442.37039,490.11632 C443.239929,490.972582 443.239929,492.360858 442.37039,493.21712 C441.93514,493.644172 441.345543,493.883627 440.73112,493.88288 L440.724946,493.88288 Z M455.14805,479.70128 C454.25691,479.702601 453.451868,479.177555 453.105392,478.369064 C452.758915,477.560573 452.938581,476.626321 453.561261,475.99856 L453.613743,475.94688 C454.483282,475.090618 455.893083,475.090618 456.762622,475.94688 C457.632161,476.803142 457.632161,478.191418 456.762622,479.04768 C456.333899,479.467996 455.753018,479.703144 455.14805,479.70128 Z M526.655402,529.7336 C525.426113,529.7336 524.429577,528.75228 524.429577,527.54176 L524.429577,527.38672 C524.474181,526.207119 525.458224,525.273511 526.656946,525.273511 C527.855668,525.273511 528.839711,526.207119 528.884315,527.38672 L528.884315,527.54176 C528.884316,528.123599 528.649386,528.681563 528.231295,529.092701 C527.813204,529.503838 527.246263,529.734407 526.655402,529.7336 Z M526.655402,506.736 C525.426113,506.736 524.429577,505.75468 524.429577,504.54416 L524.429577,504.38912 C524.474181,503.209519 525.458224,502.275911 526.656946,502.275911 C527.855668,502.275911 528.839711,503.209519 528.884315,504.38912 L528.884315,504.54416 C528.884316,505.125999 528.649386,505.683963 528.231295,506.095101 C527.813204,506.506238 527.246263,506.736807 526.655402,506.736 Z M526.655402,483.7384 C525.426113,483.7384 524.429577,482.75708 524.429577,481.54656 L524.429577,481.39456 C524.474181,480.214959 525.458224,479.281351 526.656946,479.281351 C527.855668,479.281351 528.839711,480.214959 528.884315,481.39456 L528.884315,481.54656 C528.884316,482.128399 528.649386,482.686363 528.231295,483.097501 C527.813204,483.508638 527.246263,483.739207 526.655402,483.7384 Z M526.655402,437.74624 C526.064542,437.746241 525.497926,437.514898 525.080414,437.10319 C524.662901,436.691483 524.428757,436.133199 524.429577,435.55136 L524.429577,435.4024 C524.39921,434.599312 524.816977,433.844094 525.518629,433.433668 C526.22028,433.023243 527.093612,433.023243 527.795264,433.433668 C528.496915,433.844094 528.914682,434.599312 528.884315,435.4024 L528.884315,435.55136 C528.884315,436.763559 527.886397,437.74624 526.655402,437.74624 Z M526.655402,414.74864 C525.426113,414.74864 524.429577,413.76732 524.429577,412.5568 L524.429577,412.4048 C524.39921,411.601712 524.816977,410.846494 525.518629,410.436068 C526.22028,410.025643 527.093612,410.025643 527.795264,410.436068 C528.496915,410.846494 528.914682,411.601712 528.884315,412.4048 L528.884315,412.5568 C528.884316,413.138639 528.649386,413.696603 528.231295,414.107741 C527.813204,414.518878 527.246263,414.749447 526.655402,414.74864 Z M526.655402,391.75104 C525.426113,391.75104 524.429577,390.76972 524.429577,389.5592 L524.429577,389.4072 C524.474181,388.227599 525.458224,387.293991 526.656946,387.293991 C527.855668,387.293991 528.839711,388.227599 528.884315,389.4072 L528.884315,389.5592 C528.884316,390.141039 528.649386,390.699003 528.231295,391.110141 C527.813204,391.521278 527.246263,391.751847 526.655402,391.75104 Z M526.655402,368.75648 C526.064542,368.756481 525.497926,368.525138 525.080414,368.11343 C524.662901,367.701723 524.428757,367.143439 524.429577,366.5616 L524.429577,366.4096 C524.474181,365.229999 525.458224,364.296391 526.656946,364.296391 C527.855668,364.296391 528.839711,365.229999 528.884315,366.4096 L528.884315,366.5616 C528.884315,367.773799 527.886397,368.75648 526.655402,368.75648 Z M635.65912,529.7336 C634.429831,529.7336 633.433295,528.75228 633.433295,527.54176 L633.433295,527.38672 C633.477899,526.207119 634.461942,525.273511 635.660664,525.273511 C636.859385,525.273511 637.843429,526.207119 637.888033,527.38672 L637.888033,527.54176 C637.888034,528.123599 637.653104,528.681563 637.235013,529.092701 C636.816922,529.503838 636.249981,529.734407 635.65912,529.7336 Z M635.65912,506.736 C634.429831,506.736 633.433295,505.75468 633.433295,504.54416 L633.433295,504.38912 C633.477899,503.209519 634.461942,502.275911 635.660664,502.275911 C636.859385,502.275911 637.843429,503.209519 637.888033,504.38912 L637.888033,504.54416 C637.888034,505.125999 637.653104,505.683963 637.235013,506.095101 C636.816922,506.506238 636.249981,506.736807 635.65912,506.736 Z M635.65912,483.7384 C634.429831,483.7384 633.433295,482.75708 633.433295,481.54656 L633.433295,481.39456 C633.477899,480.214959 634.461942,479.281351 635.660664,479.281351 C636.859385,479.281351 637.843429,480.214959 637.888033,481.39456 L637.888033,481.54656 C637.888034,482.128399 637.653104,482.686363 637.235013,483.097501 C636.816922,483.508638 636.249981,483.739207 635.65912,483.7384 Z M635.65912,437.74624 C635.068259,437.746241 634.501644,437.514898 634.084131,437.10319 C633.666619,436.691483 633.432475,436.133199 633.433295,435.55136 L633.433295,435.4024 C633.402928,434.599312 633.820695,433.844094 634.522346,433.433668 C635.223998,433.023243 636.09733,433.023243 636.798981,433.433668 C637.500633,433.844094 637.9184,434.599312 637.888033,435.4024 L637.888033,435.55136 C637.888033,436.763559 636.890115,437.74624 635.65912,437.74624 Z M635.65912,414.74864 C634.429831,414.74864 633.433295,413.76732 633.433295,412.5568 L633.433295,412.4048 C633.402928,411.601712 633.820695,410.846494 634.522346,410.436068 C635.223998,410.025643 636.09733,410.025643 636.798981,410.436068 C637.500633,410.846494 637.9184,411.601712 637.888033,412.4048 L637.888033,412.5568 C637.888034,413.138639 637.653104,413.696603 637.235013,414.107741 C636.816922,414.518878 636.249981,414.749447 635.65912,414.74864 Z M635.65912,391.75104 C634.429831,391.75104 633.433295,390.76972 633.433295,389.5592 L633.433295,389.4072 C633.477899,388.227599 634.461942,387.293991 635.660664,387.293991 C636.859385,387.293991 637.843429,388.227599 637.888033,389.4072 L637.888033,389.5592 C637.888034,390.141039 637.653104,390.699003 637.235013,391.110141 C636.816922,391.521278 636.249981,391.751847 635.65912,391.75104 Z M635.65912,368.75648 C635.068259,368.756481 634.501644,368.525138 634.084131,368.11343 C633.666619,367.701723 633.432475,367.143439 633.433295,366.5616 L633.433295,366.4096 C633.477899,365.229999 634.461942,364.296391 635.660664,364.296391 C636.859385,364.296391 637.843429,365.229999 637.888033,366.4096 L637.888033,366.5616 C637.888033,367.773799 636.890115,368.75648 635.65912,368.75648 Z M613.885544,552.65216 C612.640579,552.657562 611.619172,551.682802 611.585627,550.45728 C611.56809,549.881921 611.788001,549.324109 612.195182,548.911116 C612.602364,548.498122 613.162079,548.265181 613.746622,548.26544 L613.891718,548.26544 C615.089609,548.309363 616.037694,549.278381 616.037694,550.4588 C616.037694,551.639219 615.089609,552.608237 613.891718,552.65216 L613.885544,552.65216 Z M592.096531,552.65216 C590.851567,552.657562 589.830159,551.682802 589.796614,550.45728 C589.779078,549.881921 589.998988,549.324109 590.40617,548.911116 C590.813351,548.498122 591.373067,548.265181 591.95761,548.26544 L592.102705,548.26544 C592.918246,548.235537 593.685174,548.646925 594.101963,549.337863 C594.518753,550.028801 594.518753,550.888799 594.101963,551.579737 C593.685174,552.270675 592.918246,552.682063 592.102705,552.65216 L592.096531,552.65216 Z M570.307519,552.65216 C569.06309,552.657524 568.042586,551.682317 568.010689,550.45728 C567.993152,549.881921 568.213063,549.324109 568.620244,548.911116 C569.027426,548.498122 569.587142,548.265181 570.171685,548.26544 L570.313693,548.26544 C571.129233,548.235537 571.896162,548.646925 572.312951,549.337863 C572.72974,550.028801 572.72974,550.888799 572.312951,551.579737 C571.896162,552.270675 571.129233,552.682063 570.313693,552.65216 L570.307519,552.65216 Z M548.518506,552.65216 C547.273542,552.657562 546.252134,551.682802 546.218589,550.45728 C546.201053,549.881921 546.420963,549.324109 546.828145,548.911116 C547.235326,548.498122 547.795042,548.265181 548.379585,548.26544 L548.52468,548.26544 C549.340221,548.235537 550.107149,548.646925 550.523939,549.337863 C550.940728,550.028801 550.940728,550.888799 550.523939,551.579737 C550.107149,552.270675 549.340221,552.682063 548.52468,552.65216 L548.518506,552.65216 Z M613.941112,345.68592 C612.696148,345.691322 611.67474,344.716562 611.641195,343.49104 C611.623659,342.915681 611.843569,342.357869 612.250751,341.944876 C612.657932,341.531882 613.217648,341.298941 613.802191,341.2992 L613.947286,341.2992 C615.145178,341.343123 616.093262,342.312141 616.093262,343.49256 C616.093262,344.672979 615.145178,345.641997 613.947286,345.68592 L613.941112,345.68592 Z M592.1521,345.68592 C590.907135,345.691322 589.885728,344.716562 589.852183,343.49104 C589.834646,342.915681 590.054557,342.357869 590.461738,341.944876 C590.86892,341.531882 591.428635,341.298941 592.013178,341.2992 L592.158274,341.2992 C592.973814,341.269297 593.740743,341.680685 594.157532,342.371623 C594.574321,343.062561 594.574321,343.922559 594.157532,344.613497 C593.740743,345.304435 592.973814,345.715823 592.158274,345.68592 L592.1521,345.68592 Z M570.363087,345.68592 C569.118123,345.691322 568.096715,344.716562 568.06317,343.49104 C568.045634,342.915681 568.265544,342.357869 568.672726,341.944876 C569.079907,341.531882 569.639623,341.298941 570.224166,341.2992 L570.369261,341.2992 C571.567153,341.343123 572.515237,342.312141 572.515237,343.49256 C572.515237,344.672979 571.567153,345.641997 570.369261,345.68592 L570.363087,345.68592 Z M548.574075,345.68592 C547.329111,345.691322 546.307703,344.716562 546.274158,343.49104 C546.256621,342.915681 546.476532,342.357869 546.883713,341.944876 C547.290895,341.531882 547.85061,341.298941 548.435154,341.2992 L548.580249,341.2992 C549.395789,341.269297 550.162718,341.680685 550.579507,342.371623 C550.996296,343.062561 550.996296,343.922559 550.579507,344.613497 C550.162718,345.304435 549.395789,345.715823 548.580249,345.68592 L548.574075,345.68592 Z M613.941112,460.68 C612.696655,460.687061 611.674764,459.71319 611.641195,458.48816 C611.622806,457.912283 611.842338,457.353675 612.249613,456.940014 C612.656889,456.526352 613.217095,456.292995 613.802191,456.29328 L613.947286,456.29328 C615.145178,456.337203 616.093262,457.306221 616.093262,458.48664 C616.093262,459.667059 615.145178,460.636077 613.947286,460.68 L613.941112,460.68 Z M592.1521,460.68 C590.908303,460.685442 589.887372,459.712487 589.852183,458.48816 C589.833794,457.912283 590.053325,457.353675 590.460601,456.940014 C590.867876,456.526352 591.428083,456.292995 592.013178,456.29328 L592.158274,456.29328 C592.973814,456.263377 593.740743,456.674765 594.157532,457.365703 C594.574321,458.056641 594.574321,458.916639 594.157532,459.607577 C593.740743,460.298515 592.973814,460.709903 592.158274,460.68 L592.1521,460.68 Z M570.363087,460.68 C569.11929,460.685442 568.09836,459.712487 568.06317,458.48816 C568.044781,457.912283 568.264313,457.353675 568.671588,456.940014 C569.078864,456.526352 569.63907,456.292995 570.224166,456.29328 L570.369261,456.29328 C571.567153,456.337203 572.515237,457.306221 572.515237,458.48664 C572.515237,459.667059 571.567153,460.636077 570.369261,460.68 L570.363087,460.68 Z M548.574075,460.68 C547.330278,460.685442 546.309348,459.712487 546.274158,458.48816 C546.255769,457.912283 546.475301,457.353675 546.882576,456.940014 C547.289852,456.526352 547.850058,456.292995 548.435154,456.29328 L548.580249,456.29328 C549.395789,456.263377 550.162718,456.674765 550.579507,457.365703 C550.996296,458.056641 550.996296,458.916639 550.579507,459.607577 C550.162718,460.298515 549.395789,460.709903 548.580249,460.68 L548.574075,460.68 Z M554.248232,432.3016 C553.355757,432.304126 552.549048,431.778606 552.202294,430.9688 C551.855539,430.158995 552.036581,429.223342 552.661444,428.59584 L552.713925,428.5472 C553.583464,427.690938 554.993266,427.690938 555.862805,428.5472 C556.732344,429.403462 556.732344,430.791738 555.862805,431.648 C555.434082,432.068316 554.8532,432.303464 554.248232,432.3016 Z M568.649726,418.10176 C567.765433,418.103097 566.965679,417.584605 566.61742,416.784186 C566.26916,415.983767 566.439621,415.055931 567.050589,414.4264 L567.14629,414.33216 C568.01583,413.475898 569.425631,413.475898 570.29517,414.33216 C571.164709,415.188422 571.164709,416.576698 570.29517,417.43296 C569.858721,417.862335 569.266663,418.10298 568.649726,418.10176 Z M583.082091,403.88672 C582.19772,403.889751 581.397135,403.371987 581.048599,402.571597 C580.700064,401.771207 580.87107,400.843179 581.482954,400.2144 L581.578656,400.12016 C582.134507,399.534635 582.970279,399.294039 583.75888,399.492534 C584.547482,399.691028 585.163499,400.297045 585.365844,401.073411 C585.568188,401.849776 585.324681,402.673023 584.730622,403.22096 C584.292336,403.649115 583.699454,403.888551 583.082091,403.88672 Z M597.517544,389.67472 C596.631856,389.678933 595.829628,389.160701 595.480815,388.359012 C595.132003,387.557322 595.304362,386.627901 595.918407,385.99936 L596.014108,385.90512 C596.570541,385.320132 597.406552,385.080343 598.194956,385.279598 C598.98336,385.478853 599.598773,386.085464 599.800345,386.862025 C600.001918,387.638585 599.757591,388.461596 599.162988,389.00896 C598.724705,389.435249 598.133574,389.674426 597.517544,389.67472 Z M611.940647,375.49008 C611.042649,375.492571 610.232112,374.96055 609.888939,374.143378 C609.545766,373.326206 609.737972,372.385842 610.375469,371.76304 L610.42795,371.7144 C611.309424,370.869891 612.719226,370.888945 613.57683,371.75696 C614.434434,372.624975 614.415084,374.01325 613.53361,374.85776 C613.10654,375.264822 612.535007,375.491689 611.940647,375.49008 Z M552.269378,536.5128 C551.378328,536.512411 550.574136,535.986641 550.227937,535.178133 C549.881737,534.369624 550.06084,533.435571 550.682589,532.80704 L550.735071,532.7584 C551.60461,531.902138 553.014411,531.902138 553.88395,532.7584 C554.753489,533.614662 554.753489,535.002938 553.88395,535.8592 C553.455227,536.279516 552.874346,536.514664 552.269378,536.5128 Z M566.686307,522.30992 C565.801936,522.312951 565.00135,521.795187 564.652815,520.994797 C564.30428,520.194407 564.475285,519.266379 565.08717,518.6376 L565.182871,518.54336 C566.052411,517.687098 567.462212,517.687098 568.331751,518.54336 C569.20129,519.399622 569.20129,520.787898 568.331751,521.64416 C567.894223,522.071571 567.302601,522.310946 566.686307,522.30992 Z M581.118672,508.09792 C580.234379,508.099257 579.434625,507.580765 579.086366,506.780346 C578.738106,505.979927 578.908567,505.052091 579.519535,504.42256 L579.615237,504.32832 C580.484776,503.472058 581.894577,503.472058 582.764116,504.32832 C583.633655,505.184582 583.633655,506.572858 582.764116,507.42912 C582.325667,507.863725 581.728427,508.106859 581.106324,508.104 L581.118672,508.09792 Z M595.554124,493.88288 C594.668436,493.887093 593.866209,493.368861 593.517396,492.567172 C593.168584,491.765482 593.340943,490.836061 593.954988,490.20752 L594.050689,490.11632 C594.920228,489.260058 596.330029,489.260058 597.199568,490.11632 C598.069108,490.972582 598.069108,492.360858 597.199568,493.21712 C596.759011,493.647518 596.162343,493.887137 595.541776,493.88288 L595.554124,493.88288 Z M609.96488,479.70128 C609.07374,479.702601 608.268698,479.177555 607.922222,478.369064 C607.575745,477.560573 607.755411,476.626321 608.378091,475.99856 L608.427485,475.94688 C608.983336,475.361355 609.819109,475.120759 610.60771,475.319254 C611.396312,475.517748 612.012329,476.123765 612.214673,476.900131 C612.417018,477.676496 612.173511,478.499743 611.579452,479.04768 C611.150729,479.467996 610.569848,479.703144 609.96488,479.70128 Z M681.472232,529.7336 C680.881372,529.734407 680.314431,529.503838 679.89634,529.092701 C679.478249,528.681563 679.243319,528.123599 679.24332,527.54176 L679.24332,527.38672 C679.287924,526.207119 680.271967,525.273511 681.470689,525.273511 C682.66941,525.273511 683.653454,526.207119 683.698058,527.38672 L683.698058,527.54176 C683.698058,528.75228 682.701522,529.7336 681.472232,529.7336 Z M681.472232,506.736 C680.881372,506.736807 680.314431,506.506238 679.89634,506.095101 C679.478249,505.683963 679.243319,505.125999 679.24332,504.54416 L679.24332,504.38912 C679.287924,503.209519 680.271967,502.275911 681.470689,502.275911 C682.66941,502.275911 683.653454,503.209519 683.698058,504.38912 L683.698058,504.54416 C683.698058,505.75468 682.701522,506.736 681.472232,506.736 Z M681.472232,483.7384 C680.881372,483.739207 680.314431,483.508638 679.89634,483.097501 C679.478249,482.686363 679.243319,482.128399 679.24332,481.54656 L679.24332,481.39456 C679.287924,480.214959 680.271967,479.281351 681.470689,479.281351 C682.66941,479.281351 683.653454,480.214959 683.698058,481.39456 L683.698058,481.54656 C683.698058,482.75708 682.701522,483.7384 681.472232,483.7384 Z M681.472232,437.74624 C680.241238,437.74624 679.24332,436.763559 679.24332,435.55136 L679.24332,435.4024 C679.212952,434.599312 679.63072,433.844094 680.332371,433.433668 C681.034023,433.023243 681.907355,433.023243 682.609006,433.433668 C683.310658,433.844094 683.728425,434.599312 683.698058,435.4024 L683.698058,435.55136 C683.698878,436.133199 683.464733,436.691483 683.047221,437.10319 C682.629709,437.514898 682.063093,437.746241 681.472232,437.74624 Z M681.472232,414.74864 C680.881372,414.749447 680.314431,414.518878 679.89634,414.107741 C679.478249,413.696603 679.243319,413.138639 679.24332,412.5568 L679.24332,412.4048 C679.212952,411.601712 679.63072,410.846494 680.332371,410.436068 C681.034023,410.025643 681.907355,410.025643 682.609006,410.436068 C683.310658,410.846494 683.728425,411.601712 683.698058,412.4048 L683.698058,412.5568 C683.698058,413.138112 683.463552,413.695615 683.046129,414.106665 C682.628706,414.517715 682.062558,414.74864 681.472232,414.74864 Z M681.472232,391.75104 C680.881372,391.751847 680.314431,391.521278 679.89634,391.110141 C679.478249,390.699003 679.243319,390.141039 679.24332,389.5592 L679.24332,389.4072 C679.287924,388.227599 680.271967,387.293991 681.470689,387.293991 C682.66941,387.293991 683.653454,388.227599 683.698058,389.4072 L683.698058,389.5592 C683.698058,390.140512 683.463552,390.698015 683.046129,391.109065 C682.628706,391.520115 682.062558,391.75104 681.472232,391.75104 Z M681.472232,368.75648 C680.241238,368.75648 679.24332,367.773799 679.24332,366.5616 L679.24332,366.4096 C679.287924,365.229999 680.271967,364.296391 681.470689,364.296391 C682.66941,364.296391 683.653454,365.229999 683.698058,366.4096 L683.698058,366.5616 C683.698878,367.143439 683.464733,367.701723 683.047221,368.11343 C682.629709,368.525138 682.063093,368.756481 681.472232,368.75648 Z M790.47595,529.7336 C789.88509,529.734407 789.318149,529.503838 788.900058,529.092701 C788.481966,528.681563 788.247037,528.123599 788.247037,527.54176 L788.247037,527.38672 C788.291641,526.207119 789.275685,525.273511 790.474407,525.273511 C791.673128,525.273511 792.657172,526.207119 792.701776,527.38672 L792.701776,527.54176 C792.701776,528.75228 791.70524,529.7336 790.47595,529.7336 Z M790.47595,506.736 C789.88509,506.736807 789.318149,506.506238 788.900058,506.095101 C788.481966,505.683963 788.247037,505.125999 788.247037,504.54416 L788.247037,504.38912 C788.291641,503.209519 789.275685,502.275911 790.474407,502.275911 C791.673128,502.275911 792.657172,503.209519 792.701776,504.38912 L792.701776,504.54416 C792.701776,505.75468 791.70524,506.736 790.47595,506.736 Z M790.47595,483.7384 C789.88509,483.739207 789.318149,483.508638 788.900058,483.097501 C788.481966,482.686363 788.247037,482.128399 788.247037,481.54656 L788.247037,481.39456 C788.291641,480.214959 789.275685,479.281351 790.474407,479.281351 C791.673128,479.281351 792.657172,480.214959 792.701776,481.39456 L792.701776,481.54656 C792.701776,482.75708 791.70524,483.7384 790.47595,483.7384 Z M790.47595,437.74624 C789.244956,437.74624 788.247037,436.763559 788.247037,435.55136 L788.247037,435.4024 C788.21667,434.599312 788.634438,433.844094 789.336089,433.433668 C790.03774,433.023243 790.911073,433.023243 791.612724,433.433668 C792.314375,433.844094 792.732143,434.599312 792.701776,435.4024 L792.701776,435.55136 C792.702595,436.133199 792.468451,436.691483 792.050939,437.10319 C791.633427,437.514898 791.066811,437.746241 790.47595,437.74624 Z M790.47595,414.74864 C789.88509,414.749447 789.318149,414.518878 788.900058,414.107741 C788.481966,413.696603 788.247037,413.138639 788.247037,412.5568 L788.247037,412.4048 C788.21667,411.601712 788.634438,410.846494 789.336089,410.436068 C790.03774,410.025643 790.911073,410.025643 791.612724,410.436068 C792.314375,410.846494 792.732143,411.601712 792.701776,412.4048 L792.701776,412.5568 C792.701776,413.138112 792.46727,413.695615 792.049847,414.106665 C791.632423,414.517715 791.066276,414.74864 790.47595,414.74864 Z M790.47595,391.75104 C789.88509,391.751847 789.318149,391.521278 788.900058,391.110141 C788.481966,390.699003 788.247037,390.141039 788.247037,389.5592 L788.247037,389.4072 C788.291641,388.227599 789.275685,387.293991 790.474407,387.293991 C791.673128,387.293991 792.657172,388.227599 792.701776,389.4072 L792.701776,389.5592 C792.701776,390.140512 792.46727,390.698015 792.049847,391.109065 C791.632423,391.520115 791.066276,391.75104 790.47595,391.75104 Z M790.47595,368.75648 C789.244956,368.75648 788.247037,367.773799 788.247037,366.5616 L788.247037,366.4096 C788.291641,365.229999 789.275685,364.296391 790.474407,364.296391 C791.673128,364.296391 792.657172,365.229999 792.701776,366.4096 L792.701776,366.5616 C792.702595,367.143439 792.468451,367.701723 792.050939,368.11343 C791.633427,368.525138 791.066811,368.756481 790.47595,368.75648 Z M768.699286,552.65216 C767.454322,552.657562 766.432915,551.682802 766.399369,550.45728 C766.381833,549.881921 766.601743,549.324109 767.008925,548.911116 C767.416106,548.498122 767.975822,548.265181 768.560365,548.26544 L768.702373,548.26544 C769.517914,548.235537 770.284842,548.646925 770.701632,549.337863 C771.118421,550.028801 771.118421,550.888799 770.701632,551.579737 C770.284842,552.270675 769.517914,552.682063 768.702373,552.65216 L768.699286,552.65216 Z M746.913361,552.65216 C745.668397,552.657562 744.646989,551.682802 744.613444,550.45728 C744.595908,549.881921 744.815818,549.324109 745.223,548.911116 C745.630181,548.498122 746.189897,548.265181 746.77444,548.26544 L746.919535,548.26544 C748.117427,548.309363 749.065511,549.278381 749.065511,550.4588 C749.065511,551.639219 748.117427,552.608237 746.919535,552.65216 L746.913361,552.65216 Z M725.121261,552.65216 C723.876833,552.657524 722.856328,551.682317 722.824432,550.45728 C722.806895,549.881921 723.026806,549.324109 723.433987,548.911116 C723.841169,548.498122 724.400884,548.265181 724.985427,548.26544 L725.127436,548.26544 C725.942976,548.235537 726.709905,548.646925 727.126694,549.337863 C727.543483,550.028801 727.543483,550.888799 727.126694,551.579737 C726.709905,552.270675 725.942976,552.682063 725.127436,552.65216 L725.121261,552.65216 Z M703.335336,552.65216 C702.090372,552.657562 701.068964,551.682802 701.035419,550.45728 C701.017883,549.881921 701.237793,549.324109 701.644975,548.911116 C702.052156,548.498122 702.611872,548.265181 703.196415,548.26544 L703.34151,548.26544 C704.539402,548.309363 705.487486,549.278381 705.487486,550.4588 C705.487486,551.639219 704.539402,552.608237 703.34151,552.65216 L703.335336,552.65216 Z M768.754855,345.68592 C767.509891,345.691322 766.488483,344.716562 766.454938,343.49104 C766.437401,342.915681 766.657312,342.357869 767.064493,341.944876 C767.471675,341.531882 768.03139,341.298941 768.615934,341.2992 L768.757942,341.2992 C769.573482,341.269297 770.340411,341.680685 770.7572,342.371623 C771.173989,343.062561 771.173989,343.922559 770.7572,344.613497 C770.340411,345.304435 769.573482,345.715823 768.757942,345.68592 L768.754855,345.68592 Z M746.965842,345.68592 C745.721414,345.691284 744.700909,344.716077 744.669012,343.49104 C744.651476,342.915681 744.871386,342.357869 745.278568,341.944876 C745.68575,341.531882 746.245465,341.298941 746.830008,341.2992 L746.972017,341.2992 C747.787557,341.269297 748.554485,341.680685 748.971275,342.371623 C749.388064,343.062561 749.388064,343.922559 748.971275,344.613497 C748.554485,345.304435 747.787557,345.715823 746.972017,345.68592 L746.965842,345.68592 Z M725.17683,345.68592 C723.932401,345.691284 722.911897,344.716077 722.88,343.49104 C722.862464,342.915681 723.082374,342.357869 723.489556,341.944876 C723.896737,341.531882 724.456453,341.298941 725.040996,341.2992 L725.183004,341.2992 C725.998544,341.269297 726.765473,341.680685 727.182262,342.371623 C727.599052,343.062561 727.599052,343.922559 727.182262,344.613497 C726.765473,345.304435 725.998544,345.715823 725.183004,345.68592 L725.17683,345.68592 Z M703.390905,345.68592 C702.14594,345.691322 701.124533,344.716562 701.090988,343.49104 C701.073451,342.915681 701.293362,342.357869 701.700543,341.944876 C702.107725,341.531882 702.66744,341.298941 703.251983,341.2992 L703.397079,341.2992 C704.59497,341.343123 705.543055,342.312141 705.543055,343.49256 C705.543055,344.672979 704.59497,345.641997 703.397079,345.68592 L703.390905,345.68592 Z M768.754855,460.68 C767.511058,460.685442 766.490128,459.712487 766.454938,458.48816 C766.436549,457.912283 766.656081,457.353675 767.063356,456.940014 C767.470632,456.526352 768.030838,456.292995 768.615934,456.29328 L768.757942,456.29328 C769.573482,456.263377 770.340411,456.674765 770.7572,457.365703 C771.173989,458.056641 771.173989,458.916639 770.7572,459.607577 C770.340411,460.298515 769.573482,460.709903 768.757942,460.68 L768.754855,460.68 Z M746.965842,460.68 C745.722583,460.685402 744.702557,459.712003 744.669012,458.48816 C744.650624,457.912283 744.870155,457.353675 745.277431,456.940014 C745.684706,456.526352 746.244913,456.292995 746.830008,456.29328 L746.972017,456.29328 C747.787557,456.263377 748.554485,456.674765 748.971275,457.365703 C749.388064,458.056641 749.388064,458.916639 748.971275,459.607577 C748.554485,460.298515 747.787557,460.709903 746.972017,460.68 L746.965842,460.68 Z M725.17683,460.68 C723.93357,460.685402 722.913544,459.712003 722.88,458.48816 C722.861611,457.912283 723.081143,457.353675 723.488418,456.940014 C723.895694,456.526352 724.4559,456.292995 725.040996,456.29328 L725.183004,456.29328 C725.998544,456.263377 726.765473,456.674765 727.182262,457.365703 C727.599052,458.056641 727.599052,458.916639 727.182262,459.607577 C726.765473,460.298515 725.998544,460.709903 725.183004,460.68 L725.17683,460.68 Z M703.390905,460.68 C702.146447,460.687061 701.124556,459.71319 701.090988,458.48816 C701.072599,457.912283 701.29213,457.353675 701.699406,456.940014 C702.106681,456.526352 702.666888,456.292995 703.251983,456.29328 L703.397079,456.29328 C704.59497,456.337203 705.543055,457.306221 705.543055,458.48664 C705.543055,459.667059 704.59497,460.636077 703.397079,460.68 L703.390905,460.68 Z M709.065062,432.3016 C708.173452,432.302434 707.368123,431.777114 707.021134,430.968334 C706.674144,430.159553 706.853045,429.224767 707.475187,428.59584 L707.527668,428.5472 C708.090161,427.993295 708.910013,427.776971 709.678393,427.979714 C710.446773,428.182457 711.046946,428.773466 711.252833,429.530114 C711.458719,430.286762 711.239041,431.094095 710.676548,431.648 C710.248965,432.068138 709.669095,432.303327 709.065062,432.3016 Z M723.463469,418.10176 C722.578342,418.104745 721.777254,417.58606 721.429234,416.784644 C721.081213,415.983228 721.253772,415.054544 721.867419,414.4264 L721.96312,414.33216 C722.832659,413.475898 724.242461,413.475898 725.112,414.33216 C725.981539,415.188422 725.981539,416.576698 725.112,417.43296 C724.674027,417.861947 724.081207,418.10245 723.463469,418.10176 Z M737.898921,403.88672 C737.01455,403.889751 736.213964,403.371987 735.865429,402.571597 C735.516894,401.771207 735.6879,400.843179 736.299784,400.2144 L736.395485,400.12016 C737.265025,399.263898 738.674826,399.263898 739.544365,400.12016 C740.413904,400.976422 740.413904,402.364698 739.544365,403.22096 C739.106837,403.648371 738.515215,403.887746 737.898921,403.88672 Z M752.331286,389.67472 C751.44616,389.677705 750.645072,389.15902 750.297051,388.357604 C749.949031,387.556188 750.12159,386.627504 750.735237,385.99936 L750.827851,385.90512 C751.706078,385.096666 753.077154,385.11973 753.926828,385.95725 C754.776502,386.794771 754.79858,388.144935 753.97673,389.00896 C753.539013,389.436089 752.947514,389.675414 752.331286,389.67472 Z M766.757477,375.49008 C765.858917,375.493811 765.047228,374.962243 764.70326,374.144791 C764.359292,373.327339 764.551308,372.386231 765.189212,371.76304 L765.24478,371.7144 C766.126254,370.86989 767.536055,370.888945 768.39366,371.75696 C769.251264,372.624975 769.231914,374.01325 768.35044,374.85776 C767.922649,375.263728 767.351586,375.49041 766.757477,375.49008 Z M707.086207,536.5128 C706.193733,536.515326 705.387023,535.989806 705.040269,535.18 C704.693514,534.370195 704.874556,533.434542 705.499419,532.80704 L705.548813,532.7584 C706.426236,531.949099 707.797334,531.97084 708.647841,532.80754 C709.498348,533.644241 709.52177,534.994382 708.70078,535.8592 C708.272057,536.279516 707.691175,536.514664 707.086207,536.5128 Z M721.487701,522.30992 C720.60333,522.312951 719.802745,521.795187 719.454209,520.994797 C719.105674,520.194407 719.27668,519.266379 719.888564,518.6376 L719.984266,518.54336 C720.861688,517.734059 722.232787,517.7558 723.083294,518.5925 C723.933801,519.429201 723.957222,520.779342 723.136232,521.64416 C722.697946,522.072315 722.105064,522.311751 721.487701,522.30992 Z M735.920066,508.09792 C735.03494,508.100905 734.233852,507.58222 733.885831,506.780804 C733.537811,505.979388 733.71037,505.050704 734.324017,504.42256 L734.419718,504.32832 C735.289257,503.472058 736.699058,503.472058 737.568598,504.32832 C738.438137,505.184582 738.438137,506.572858 737.568598,507.42912 C737.131634,507.860336 736.53869,508.103077 735.920066,508.104 L735.920066,508.09792 Z M750.355519,493.88288 C749.470392,493.885865 748.669304,493.36718 748.321284,492.565764 C747.973263,491.764348 748.145822,490.835664 748.759469,490.20752 L748.852083,490.11632 C749.721622,489.260058 751.131423,489.260058 752.000962,490.11632 C752.870501,490.972582 752.870502,492.360858 752.000963,493.21712 C751.567987,493.641945 750.982167,493.881217 750.370954,493.88288 L750.355519,493.88288 Z M764.778622,479.70128 C763.887483,479.702601 763.08244,479.177555 762.735964,478.369064 C762.389488,477.560573 762.569153,476.626321 763.191834,475.99856 L763.244315,475.94688 C764.113854,475.090618 765.523656,475.090618 766.393195,475.94688 C767.262734,476.803142 767.262734,478.191418 766.393195,479.04768 C765.964472,479.467996 765.38359,479.703144 764.778622,479.70128 Z" id="Dots" fill="#BBBBBA"></path>
        <path d="M671.547244,291 L799.452756,291 C800.307275,291 801,291.692725 801,292.547244 L801,311.452756 C801,312.307275 800.307275,313 799.452756,313 L671.547244,313 C670.692725,313 670,312.307275 670,311.452756 L670,292.547244 C670,291.692725 670.692725,291 671.547244,291 Z M362.547244,291 L490.452756,291 C491.307275,291 492,291.692725 492,292.547244 L492,311.452756 C492,312.307275 491.307275,313 490.452756,313 L362.547244,313 C361.692725,313 361,312.307275 361,311.452756 L361,292.547244 C361,291.692725 361.692725,291 362.547244,291 Z M517.547244,291 L645.452756,291 C646.307275,291 647,291.692725 647,292.547244 L647,311.452756 C647,312.307275 646.307275,313 645.452756,313 L517.547244,313 C516.692725,313 516,312.307275 516,311.452756 L516,292.547244 C516,291.692725 516.692725,291 517.547244,291 Z M207.547244,291 L335.452756,291 C336.307275,291 337,291.692725 337,292.547244 L337,311.452756 C337,312.307275 336.307275,313 335.452756,313 L207.547244,313 C206.692725,313 206,312.307275 206,311.452756 L206,292.547244 C206,291.692725 206.692725,291 207.547244,291 Z M53.5472441,291 L181.452756,291 C182.307275,291 183,291.692725 183,292.547244 L183,311.452756 C183,312.307275 182.307275,313 181.452756,313 L53.5472441,313 C52.6927248,313 52,312.307275 52,311.452756 L52,292.547244 C52,291.692725 52.6927248,291 53.5472441,291 Z M793.353321,334.4896 L797.034446,334.4896 C798.259543,334.4896 799.25268,335.482737 799.25268,336.707834 L799.25268,557.246566 C799.25268,558.471663 798.259543,559.4648 797.034446,559.4648 L793.353321,559.4648 L688.160388,559.4648 L674.308658,559.4648 C673.083561,559.4648 672.090423,558.471663 672.090423,557.246566 L672.090423,336.707834 C672.090423,335.482737 673.083561,334.4896 674.308658,334.4896 L688.160388,334.4896 L793.353321,334.4896 Z M780.964481,352.49856 L690.378622,352.49856 L690.378622,541.45584 L780.964481,541.45584 L780.964481,352.49856 Z M638.968691,334.4896 L642.649815,334.4896 C643.874912,334.4896 644.86805,335.482737 644.86805,336.707834 L644.86805,557.246566 C644.86805,558.471663 643.874912,559.4648 642.649815,559.4648 L638.968691,559.4648 L533.775757,559.4648 L519.924027,559.4648 C518.69893,559.4648 517.705793,558.471663 517.705793,557.246566 L517.705793,336.707834 C517.705793,335.482737 518.69893,334.4896 519.924027,334.4896 L533.775757,334.4896 L638.968691,334.4896 Z M626.579851,352.49856 L535.993992,352.49856 L535.993992,541.45584 L626.579851,541.45584 L626.579851,352.49856 Z M484.009853,334.4896 L487.690977,334.4896 C488.916074,334.4896 489.909212,335.482737 489.909212,336.707834 L489.909212,557.246566 C489.909212,558.471663 488.916074,559.4648 487.690977,559.4648 L484.009853,559.4648 L378.816919,559.4648 L364.965189,559.4648 C363.740092,559.4648 362.746954,558.471663 362.746954,557.246566 L362.746954,336.707834 C362.746954,335.482737 363.740092,334.4896 364.965189,334.4896 L378.816919,334.4896 L484.009853,334.4896 Z M471.621012,352.49856 L381.035154,352.49856 L381.035154,541.45584 L471.621012,541.45584 L471.621012,352.49856 Z M316.869012,467.47744 L226.280066,467.47744 L226.280066,541.45584 L316.869012,541.45584 L316.869012,467.47744 Z M316.869012,449.46848 L316.869012,352.49856 L226.280066,352.49856 L226.280066,449.46848 L316.869012,449.46848 Z M329.254765,334.4896 L332.938977,334.4896 C334.164074,334.4896 335.157212,335.482737 335.157212,336.707834 L335.157212,557.246566 C335.157212,558.471663 334.164074,559.4648 332.938977,559.4648 L329.254765,559.4648 L224.061832,559.4648 L210.210102,559.4648 C208.985005,559.4648 207.991867,558.471663 207.991867,557.246566 L207.991867,336.707834 C207.991867,335.482737 208.985005,334.4896 210.210102,334.4896 L224.061832,334.4896 L329.254765,334.4896 Z M167.8917,334.4896 C168.01451,334.475999 168.138538,334.475999 168.261347,334.4896 L178.100537,334.4896 C179.325634,334.4896 180.318772,335.482737 180.318772,336.707834 L180.318772,557.246566 C180.318772,558.471663 179.325634,559.4648 178.100537,559.4648 L164.248807,559.4648 C163.02371,559.4648 162.030573,558.471663 162.030573,557.246566 L162.030573,365.227841 L90.9266175,435.246123 C90.2766457,435.886171 89.2333191,435.886171 88.5833473,435.246123 L78.0315232,424.855413 C77.3744138,424.208337 77.3662802,423.151085 78.0133564,422.493976 C78.0193653,422.487874 78.0254211,422.481818 78.0315232,422.475809 L162.030573,339.759326 L162.030573,336.707834 C162.030573,335.482737 163.02371,334.4896 164.248807,334.4896 L167.8917,334.4896 Z" id="Combined-Shape" fill="#262B36"></path>
    </g>
</svg>
